<svg width="425" height="426" viewBox="0 0 425 426" fill="none" xmlns="http://www.w3.org/2000/svg">
<g filter="url(#filter0_d)">
<path d="M305.073 147.607L305.123 147.835L305.351 147.785L307.484 147.321L319.813 203.981L317.68 204.446L317.452 204.495L317.501 204.723L378.938 487.064C383.55 508.259 370.105 529.183 348.91 533.795L183.449 569.799C162.254 574.411 141.33 560.966 136.718 539.77L77.5209 267.723L77.4712 267.495L77.2431 267.544L75.4224 267.94L67.7887 232.859L69.6093 232.462L69.8375 232.413L69.7878 232.185L67.8141 223.114L67.7645 222.886L67.5364 222.936L65.7157 223.332L58.0804 188.243L59.908 187.845L60.1362 187.796L60.0865 187.568L56.6197 171.635L56.5701 171.407L56.342 171.457L55.0074 171.747L50.9992 153.327L52.3267 153.038L52.5549 152.988L52.5052 152.76L46.6295 125.758C42.0174 104.562 55.4624 83.6384 76.6579 79.0263L242.119 43.0224C263.314 38.4103 284.238 51.8553 288.85 73.0509L305.073 147.607Z" fill="#F1F1F1" stroke="#D9C7A7" stroke-width="0.466956"/>
<path d="M247.258 52.4339L224.999 57.2775L225.727 60.6248C227.378 68.2125 222.44 75.7243 214.692 77.4101L117.714 98.5125C109.966 100.198 102.353 95.4178 100.702 87.83L99.9734 84.4827L76.1991 89.656C61.7162 92.8074 52.4371 106.913 55.525 121.104L146.743 540.307C149.829 554.491 164.125 563.474 178.615 560.321L349.681 523.097C364.164 519.946 373.443 505.84 370.355 491.649L279.137 72.4462C276.042 58.2568 261.748 49.2809 247.258 52.4339Z" fill="white" stroke="#96C12A" stroke-width="0.700434" stroke-miterlimit="10"/>
<mask id="mask0" mask-type="alpha" maskUnits="userSpaceOnUse" x="49" y="46" width="328" height="521">
<path d="M247.258 52.4339L224.999 57.2775L225.727 60.6248C227.378 68.2125 222.44 75.7243 214.692 77.4101L117.714 98.5125C109.966 100.198 102.353 95.4178 100.702 87.83L99.9734 84.4827L76.1991 89.656C61.7162 92.8074 52.4371 106.913 55.525 121.104L146.743 540.307C149.829 554.491 164.125 563.474 178.615 560.321L349.681 523.097C364.164 519.946 373.443 505.84 370.355 491.649L279.137 72.4462C276.042 58.2568 261.748 49.2809 247.258 52.4339Z" fill="white" stroke="#96C12A" stroke-width="0.700434" stroke-miterlimit="10"/>
</mask>
<g mask="url(#mask0)">
<rect x="79.8049" y="226.987" width="225.394" height="57.8126" transform="rotate(-12.2761 79.8049 226.987)" fill="#F8F8F8"/>
<rect x="34.8043" y="98.6634" width="251.701" height="134.319" transform="rotate(-12.2761 34.8043 98.6634)" fill="url(#paint0_linear)"/>
</g>
<path d="M175.419 72.3512L141.916 79.6415C140.999 79.841 140.425 80.7443 140.623 81.6541C140.822 82.5709 141.725 83.1453 142.635 82.9474L176.138 75.6571C177.055 75.4576 177.63 74.5543 177.432 73.6445C177.239 72.7262 176.336 72.1517 175.419 72.3512Z" fill="white"/>
<path d="M183.732 73.9834C184.641 73.7856 185.218 72.8883 185.02 71.9793C184.822 71.0702 183.925 70.4936 183.016 70.6914C182.107 70.8893 181.53 71.7865 181.728 72.6956C181.926 73.6047 182.823 74.1812 183.732 73.9834Z" fill="white"/>
<path d="M74.1482 101.134L72.5022 101.492L74.1147 108.903L75.7607 108.544L74.1482 101.134Z" fill="white"/>
<path d="M71.717 102.834L70.071 103.192L71.4402 109.484L73.0862 109.126L71.717 102.834Z" fill="white"/>
<path d="M69.3957 105.034L67.7498 105.392L68.7653 110.059L70.4113 109.701L69.3957 105.034Z" fill="white"/>
<path d="M241.881 71.466L242.668 71.9714C243.052 71.4658 243.573 71.1197 244.219 70.9791C244.761 70.8612 245.282 70.9152 245.755 71.0815L246.244 70.3204C245.563 70.0321 244.794 69.9447 244.03 70.111C243.14 70.2975 242.379 70.8122 241.881 71.466Z" fill="white"/>
<path d="M239.995 70.2543L240.756 70.7433C241.453 69.7696 242.505 69.0534 243.741 68.7844C244.873 68.5381 245.998 68.6934 246.982 69.1703L247.471 68.4092C246.304 67.8267 244.947 67.6056 243.551 67.9093C242.071 68.2312 240.822 69.1069 239.995 70.2543Z" fill="white"/>
<path d="M243.101 65.8397C241.045 66.287 239.341 67.4798 238.218 69.1062L238.979 69.5952C239.961 68.1594 241.463 67.1053 243.29 66.7078C245.012 66.333 246.718 66.6165 248.14 67.3691L248.618 66.6249C246.974 65.7241 245.052 65.415 243.101 65.8397Z" fill="white"/>
<path d="M263.403 63.7204L263.077 63.7914L262.957 63.2428C262.852 62.7566 262.37 62.4469 261.883 62.5527L254.772 64.1002C254.286 64.206 253.976 64.688 254.082 65.1741L254.671 67.8827C254.777 68.3689 255.259 68.6786 255.745 68.5728L262.857 67.0253C263.343 66.9195 263.653 66.4375 263.547 65.9514L263.423 65.3819L263.749 65.3108L263.403 63.7204ZM263.469 65.961C263.566 66.4055 263.282 66.8383 262.844 66.9335L255.725 68.4826C255.281 68.5793 254.848 68.2952 254.753 67.8577L254.163 65.1491C254.067 64.7046 254.351 64.2718 254.788 64.1766L261.9 62.6291C262.345 62.5323 262.777 62.8164 262.873 63.254L263.462 65.9626L263.469 65.961Z" fill="white"/>
<path d="M259.507 63.3608L260.356 67.2639L255.786 68.2583C255.384 68.346 254.995 68.096 254.907 67.6932L254.373 65.2416C254.286 64.8388 254.534 64.4428 254.937 64.3552L259.507 63.3608Z" fill="white"/>
</g>
<path d="M129.158 172.326C128.795 170.657 128.794 169.085 129.154 167.61C129.526 166.134 130.215 164.906 131.222 163.928C132.241 162.948 133.5 162.295 135.001 161.968C137.321 161.464 139.369 161.859 141.146 163.154C142.934 164.447 144.117 166.427 144.698 169.093L144.742 169.298C145.103 170.956 145.107 172.516 144.755 173.978C144.41 175.427 143.725 176.648 142.699 177.641C141.683 178.632 140.409 179.294 138.877 179.627C136.567 180.13 134.519 179.734 132.731 178.441C130.954 177.146 129.778 175.176 129.203 172.531L129.158 172.326ZM132.162 172.035C132.573 173.924 133.339 175.346 134.459 176.301C135.59 177.253 136.89 177.569 138.359 177.25C139.839 176.928 140.889 176.095 141.509 174.75C142.127 173.396 142.208 171.674 141.754 169.585C141.347 167.717 140.572 166.302 139.429 165.342C138.294 164.369 136.991 164.042 135.522 164.362C134.084 164.674 133.048 165.499 132.416 166.835C131.783 168.171 131.698 169.904 132.162 172.035ZM159.673 159.403L153.958 160.647L157.151 175.321L154.238 175.955L151.045 161.281L145.44 162.5L144.926 160.139L159.159 157.041L159.673 159.403ZM184.711 152.491C183.991 153.858 183.03 155.04 181.827 156.038C180.641 157.033 179.244 157.705 177.637 158.055C175.527 158.514 173.573 158.395 171.773 157.7C169.991 157.001 168.468 155.807 167.207 154.117C165.941 152.411 165.061 150.42 164.565 148.143C164.033 145.699 164.015 143.397 164.509 141.238C165.021 139.076 166.017 137.289 167.499 135.88C168.981 134.47 170.86 133.518 173.137 133.023C176.753 132.236 179.894 132.972 182.56 135.233C185.239 137.473 187.087 140.928 188.103 145.599L188.398 146.955C189.946 154.07 189.671 159.574 187.573 163.467C185.471 167.344 181.591 169.941 175.934 171.26L175.03 171.457L174.178 167.539L175.157 167.326C178.976 166.425 181.706 164.788 183.346 162.415C184.983 160.024 185.438 156.717 184.711 152.491ZM177.554 154.049C179.111 153.71 180.439 152.921 181.537 151.683C182.652 150.441 183.358 149.051 183.654 147.514L183.25 145.656C182.587 142.609 181.386 140.275 179.649 138.654C177.911 137.033 176.029 136.443 174.003 136.884C171.961 137.329 170.491 138.473 169.595 140.316C168.695 142.142 168.524 144.336 169.081 146.898C169.624 149.392 170.666 151.322 172.208 152.687C173.763 154.032 175.545 154.486 177.554 154.049ZM213.589 146.207C212.87 147.574 211.909 148.756 210.706 149.754C209.519 150.749 208.122 151.421 206.515 151.771C204.406 152.23 202.451 152.112 200.652 151.416C198.869 150.717 197.347 149.523 196.085 147.833C194.82 146.127 193.939 144.136 193.444 141.859C192.912 139.415 192.893 137.113 193.388 134.954C193.899 132.792 194.896 131.006 196.377 129.596C197.859 128.187 199.738 127.234 202.015 126.739C205.631 125.952 208.772 126.689 211.438 128.949C214.118 131.189 215.965 134.644 216.982 139.315L217.277 140.671C218.825 147.786 218.55 153.29 216.451 157.183C214.349 161.06 210.469 163.658 204.812 164.976L203.908 165.173L203.056 161.255L204.035 161.042C207.855 160.141 210.584 158.504 212.224 156.131C213.861 153.741 214.316 150.433 213.589 146.207ZM206.433 147.765C207.99 147.426 209.317 146.637 210.415 145.399C211.53 144.157 212.236 142.767 212.533 141.23L212.128 139.372C211.465 136.325 210.265 133.991 208.527 132.37C206.789 130.75 204.907 130.16 202.882 130.6C200.839 131.045 199.37 132.189 198.474 134.032C197.573 135.858 197.402 138.052 197.959 140.614C198.502 143.108 199.545 145.038 201.087 146.403C202.642 147.748 204.424 148.202 206.433 147.765ZM242.468 139.924C241.748 141.29 240.787 142.472 239.584 143.471C238.398 144.465 237.001 145.137 235.394 145.487C233.284 145.946 231.33 145.828 229.53 145.132C227.748 144.433 226.225 143.239 224.964 141.55C223.698 139.844 222.818 137.852 222.322 135.575C221.79 133.131 221.772 130.83 222.266 128.67C222.778 126.508 223.774 124.722 225.256 123.312C226.738 121.903 228.617 120.95 230.894 120.455C234.51 119.668 237.651 120.405 240.317 122.665C242.996 124.905 244.844 128.36 245.86 133.031L246.155 134.387C247.703 141.502 247.428 147.006 245.33 150.899C243.228 154.776 239.348 157.374 233.691 158.692L232.787 158.889L231.935 154.972L232.914 154.758C236.733 153.857 239.463 152.22 241.103 149.847C242.74 147.457 243.195 144.149 242.468 139.924ZM235.311 141.481C236.868 141.142 238.196 140.354 239.294 139.115C240.409 137.873 241.114 136.483 241.411 134.946L241.007 133.088C240.344 130.041 239.143 127.707 237.406 126.086C235.668 124.466 233.786 123.876 231.76 124.316C229.718 124.761 228.248 125.905 227.352 127.748C226.452 129.574 226.281 131.768 226.838 134.33C227.381 136.824 228.423 138.754 229.965 140.119C231.52 141.464 233.302 141.918 235.311 141.481ZM264.752 147.51L259.637 148.623L260.551 152.821L257.635 153.456L256.721 149.257L253.561 149.945L253.036 147.533L256.196 146.845L255.741 144.753L252.581 145.441L252.059 143.044L255.219 142.356L252.797 131.226L260.996 129.442C263.378 128.924 265.398 129.118 267.056 130.026C268.714 130.934 269.768 132.421 270.217 134.487C270.689 136.655 270.382 138.476 269.295 139.949C268.216 141.41 266.446 142.413 263.986 142.959L258.657 144.119L259.112 146.21L264.227 145.097L264.752 147.51ZM258.135 141.722L263.418 140.572C264.996 140.229 266.116 139.596 266.779 138.674C267.442 137.751 267.618 136.577 267.308 135.152C267.027 133.86 266.372 132.91 265.344 132.302C264.314 131.684 263.07 131.528 261.613 131.834L256.238 133.004L258.135 141.722Z" fill="white"/>
<path d="M119.127 245.251L125.159 243.938L125.725 246.539L119.692 247.851L121.18 254.686L118.416 255.288L116.929 248.453L110.896 249.765L110.33 247.165L116.363 245.852L114.989 239.537L117.752 238.936L119.127 245.251Z" fill="#919191"/>
<circle cx="169.643" cy="235.883" r="19.7104" transform="rotate(-12.2761 169.643 235.883)" fill="#A8D538"/>
<path d="M173.541 237.114L166.29 238.692L165.802 236.448L173.053 234.871L173.541 237.114Z" fill="white"/>
<path d="M222.526 224.214L224.815 217.569L228.025 216.871L224.495 225.965L231.687 232.912L228.507 233.604L223.483 228.395L221.077 235.221L217.883 235.916L221.538 226.608L214.548 219.803L217.728 219.111L222.526 224.214Z" fill="#919191"/>
<path d="M141.477 292.028L136.889 314.067L134.006 314.694L138.72 293.375L127.011 295.923L126.52 293.664L141.141 290.482L141.477 292.028Z" fill="#919191"/>
<path d="M153.238 357.444L156.239 356.791L156.727 359.035L153.726 359.688L154.819 364.71L152.055 365.312L150.962 360.289L141.11 362.433L140.758 360.814L147.184 343.713L150.111 343.076L153.238 357.444ZM143.743 359.51L150.474 358.046L148.165 347.436L147.968 348.102L143.743 359.51Z" fill="#919191"/>
<path d="M218.584 279.545C218.819 280.625 218.741 281.648 218.35 282.615C217.968 283.58 217.344 284.406 216.476 285.092C217.711 285.332 218.757 285.846 219.613 286.635C220.48 287.422 221.041 288.405 221.298 289.584C221.705 291.456 221.396 293.085 220.369 294.47C219.352 295.853 217.814 296.769 215.753 297.217C213.673 297.67 211.883 297.479 210.384 296.643C208.892 295.795 207.943 294.44 207.538 292.578C207.284 291.409 207.371 290.285 207.8 289.206C208.24 288.125 208.971 287.218 209.995 286.487C208.93 286.221 208.029 285.727 207.291 285.006C206.553 284.284 206.068 283.389 205.835 282.319C205.438 280.496 205.708 278.923 206.644 277.599C207.58 276.274 209.004 275.404 210.916 274.988C212.818 274.574 214.47 274.775 215.872 275.591C217.283 276.404 218.188 277.722 218.584 279.545ZM218.536 290.122C218.273 288.914 217.672 288.012 216.733 287.418C215.805 286.821 214.721 286.657 213.483 286.927C212.245 287.196 211.331 287.789 210.742 288.706C210.163 289.62 210.007 290.692 210.274 291.92C210.541 293.148 211.113 294.036 211.989 294.582C212.875 295.125 213.967 295.256 215.265 294.974C216.553 294.694 217.487 294.122 218.067 293.259C218.645 292.386 218.801 291.341 218.536 290.122ZM211.408 277.247C210.328 277.482 209.525 278.009 208.998 278.83C208.478 279.638 208.344 280.616 208.594 281.765C208.833 282.865 209.354 283.685 210.156 284.227C210.967 284.756 211.922 284.901 213.021 284.662C214.121 284.422 214.924 283.895 215.431 283.079C215.946 282.251 216.084 281.287 215.845 280.188C215.606 279.088 215.069 278.266 214.234 277.721C213.4 277.176 212.458 277.018 211.408 277.247Z" fill="#919191"/>
<path d="M219.178 339.345L217.93 328.318L229.015 325.906L229.568 328.447L220.816 330.352L221.445 336.393C222.37 335.538 223.505 334.964 224.852 334.671C226.824 334.242 228.531 334.555 229.975 335.611C231.416 336.656 232.378 338.289 232.861 340.507C233.346 342.736 233.124 344.626 232.196 346.177C231.276 347.716 229.735 348.72 227.576 349.19C225.664 349.606 223.989 349.415 222.549 348.618C221.11 347.821 220.103 346.505 219.527 344.67L222.127 344.104C222.565 345.305 223.21 346.146 224.061 346.624C224.91 347.093 225.919 347.2 227.088 346.946C228.366 346.668 229.271 346.014 229.805 344.985C230.348 343.954 230.453 342.671 230.119 341.135C229.804 339.689 229.155 338.616 228.173 337.917C227.199 337.206 226.058 336.992 224.75 337.277C223.552 337.538 222.668 338.005 222.098 338.679L221.5 339.431L219.178 339.345Z" fill="#919191"/>
<path d="M292.759 270.19C292.333 270.998 291.764 271.698 291.052 272.289C290.351 272.877 289.524 273.275 288.573 273.482C287.325 273.753 286.168 273.683 285.104 273.272C284.049 272.858 283.148 272.152 282.401 271.152C281.653 270.143 281.132 268.964 280.838 267.617C280.524 266.171 280.513 264.809 280.805 263.531C281.108 262.251 281.697 261.195 282.574 260.361C283.451 259.526 284.563 258.963 285.91 258.67C288.05 258.204 289.909 258.64 291.486 259.978C293.071 261.303 294.165 263.348 294.766 266.111L294.941 266.914C295.857 271.124 295.694 274.381 294.452 276.685C293.208 278.978 290.913 280.515 287.565 281.296L287.031 281.412L286.526 279.094L287.106 278.968C289.365 278.435 290.981 277.466 291.951 276.062C292.92 274.647 293.189 272.69 292.759 270.19ZM288.524 271.111C289.445 270.911 290.231 270.444 290.881 269.711C291.54 268.977 291.958 268.154 292.134 267.245L291.894 266.145C291.502 264.342 290.792 262.961 289.763 262.002C288.735 261.043 287.622 260.694 286.423 260.955C285.214 261.218 284.345 261.895 283.815 262.985C283.282 264.066 283.181 265.364 283.51 266.88C283.832 268.356 284.448 269.498 285.361 270.306C286.281 271.101 287.335 271.37 288.524 271.111Z" fill="#919191"/>
<path d="M301.702 310.074L302.21 312.407L301.705 312.517C299.574 313.022 298.008 314.027 297.007 315.531C296.006 317.035 295.649 318.923 295.936 321.195C296.791 319.64 298.204 318.648 300.175 318.219C302.057 317.809 303.703 318.146 305.111 319.23C306.529 320.312 307.467 321.903 307.923 324.003C308.408 326.232 308.187 328.147 307.26 329.75C306.342 331.35 304.863 332.372 302.823 332.816C300.752 333.267 298.901 332.84 297.268 331.535C295.633 330.22 294.543 328.31 293.998 325.804L293.768 324.749C292.902 320.766 293.087 317.541 294.324 315.072C295.568 312.591 297.865 310.961 301.212 310.181L301.702 310.074ZM300.213 320.607C299.271 320.812 298.466 321.283 297.796 322.02C297.127 322.757 296.731 323.585 296.61 324.504L296.829 325.514C297.217 327.297 297.931 328.646 298.971 329.562C300.01 330.477 301.129 330.804 302.328 330.543C303.566 330.273 304.438 329.607 304.943 328.542C305.458 327.476 305.555 326.204 305.233 324.728C304.91 323.242 304.288 322.122 303.366 321.368C302.452 320.602 301.401 320.349 300.213 320.607Z" fill="#919191"/>
<path d="M308.31 373.125L310.375 372.676C311.669 372.374 312.615 371.81 313.213 370.985C313.812 370.159 313.988 369.182 313.742 368.053C313.191 365.517 311.652 364.524 309.126 365.073C307.937 365.332 307.06 365.881 306.496 366.719C305.939 367.546 305.783 368.519 306.026 369.638L303.277 370.237C302.904 368.523 303.219 366.965 304.221 365.565C305.232 364.152 306.703 363.235 308.634 362.815C310.675 362.371 312.392 362.562 313.786 363.39C315.18 364.218 316.086 365.592 316.504 367.514C316.709 368.455 316.6 369.433 316.178 370.449C315.766 371.462 315.082 372.3 314.127 372.965C315.397 373.082 316.449 373.507 317.283 374.239C318.126 374.968 318.685 375.962 318.959 377.22C319.381 379.162 319.082 380.84 318.062 382.255C317.042 383.67 315.517 384.599 313.486 385.041C311.455 385.483 309.681 385.293 308.164 384.471C306.657 383.648 305.707 382.334 305.315 380.531L308.079 379.93C308.327 381.069 308.896 381.9 309.788 382.422C310.68 382.943 311.75 383.069 312.998 382.797C314.325 382.508 315.265 381.94 315.818 381.094C316.37 380.247 316.505 379.175 316.223 377.878C315.949 376.62 315.353 375.738 314.433 375.232C313.514 374.727 312.324 374.623 310.864 374.92L308.798 375.369L308.31 373.125Z" fill="#919191"/>
<path d="M274.645 225.51L272.282 226.024L276.205 200.566L278.553 200.055L274.645 225.51Z" fill="#919191"/>
<defs>
<filter id="filter0_d" x="0.929836" y="0.725578" width="424.02" height="615.037" filterUnits="userSpaceOnUse" color-interpolation-filters="sRGB">
<feFlood flood-opacity="0" result="BackgroundImageFix"/>
<feColorMatrix in="SourceAlpha" type="matrix" values="0 0 0 0 0 0 0 0 0 0 0 0 0 0 0 0 0 0 127 0"/>
<feOffset dy="1.86782"/>
<feGaussianBlur stdDeviation="17.5109"/>
<feColorMatrix type="matrix" values="0 0 0 0 0 0 0 0 0 0 0 0 0 0 0 0 0 0 0.25 0"/>
<feBlend mode="normal" in2="BackgroundImageFix" result="effect1_dropShadow"/>
<feBlend mode="normal" in="SourceGraphic" in2="effect1_dropShadow" result="shape"/>
</filter>
<linearGradient id="paint0_linear" x1="160.655" y1="117.322" x2="160.655" y2="261.57" gradientUnits="userSpaceOnUse">
<stop stop-color="#ACDA3A"/>
<stop offset="1" stop-color="#ACDA3A" stop-opacity="0"/>
</linearGradient>
</defs>
</svg>
