<svg width="321" height="573" viewBox="0 0 321 573" fill="none" xmlns="http://www.w3.org/2000/svg">
<g filter="url(#filter0_d)">
<path d="M285.364 149.167V149.401H285.597H287.781V207.387H285.597H285.364V207.62V496.567C285.364 518.259 267.778 535.845 246.086 535.845H76.7536C55.0621 535.845 37.4757 518.259 37.4757 496.567V218.154V217.92H37.2423H35.379V182.018H37.2423H37.4757V181.784V172.502V172.268H37.2423H35.379V136.358H37.2494H37.4828V136.125V119.82V119.586H37.2494H35.8836V100.735H37.2423H37.4757V100.501V72.8666C37.4757 51.1751 55.0621 33.5887 76.7536 33.5887H246.086C267.778 33.5887 285.364 51.1751 285.364 72.8666V149.167Z" fill="#F1F1F1" stroke="#D9C7A7" stroke-width="0.466956"/>
<path d="M249.107 43.8777H226.327V47.3033C226.327 55.0686 219.904 61.3586 211.975 61.3586H112.727C104.798 61.3586 98.3759 55.0686 98.3759 47.3033V43.8777H74.0452C59.2235 43.8777 47.1573 55.6876 47.1573 70.2106V499.224C47.1573 513.739 59.2161 525.556 74.0452 525.556H249.114C263.936 525.556 276.002 513.747 276.002 499.224V70.2106C275.995 55.6876 263.936 43.8777 249.107 43.8777Z" fill="white" stroke="#96C12A" stroke-width="0.700434" stroke-miterlimit="10"/>
<mask id="mask0" mask-type="alpha" maskUnits="userSpaceOnUse" x="46" y="43" width="231" height="483">
<path d="M249.107 43.8777H226.327V47.3033C226.327 55.0686 219.904 61.3586 211.975 61.3586H112.727C104.798 61.3586 98.3759 55.0686 98.3759 47.3033V43.8777H74.0452C59.2235 43.8777 47.1573 55.6876 47.1573 70.2106V499.224C47.1573 513.739 59.2161 525.556 74.0452 525.556H249.114C263.936 525.556 276.002 513.747 276.002 499.224V70.2106C275.995 55.6876 263.936 43.8777 249.107 43.8777Z" fill="white" stroke="#96C12A" stroke-width="0.700434" stroke-miterlimit="10"/>
</mask>
<g mask="url(#mask0)">
<rect x="48.3689" y="178.836" width="225.394" height="57.8126" fill="#F8F8F8"/>
<rect x="31.6818" y="43.8777" width="251.701" height="134.319" fill="url(#paint0_linear)"/>
</g>
<path d="M174.676 48.0651H140.389C139.45 48.0651 138.697 48.8256 138.697 49.7567C138.697 50.6949 139.458 51.4483 140.389 51.4483H174.676C175.614 51.4483 176.368 50.6878 176.368 49.7567C176.375 48.8185 175.614 48.0651 174.676 48.0651Z" fill="white"/>
<path d="M182.452 51.4275C183.382 51.4275 184.136 50.6733 184.136 49.743C184.136 48.8127 183.382 48.0585 182.452 48.0585C181.522 48.0585 180.767 48.8127 180.767 49.743C180.767 50.6733 181.522 51.4275 182.452 51.4275Z" fill="white"/>
<path d="M69.6008 54.6573H67.9163V62.2411H69.6008V54.6573Z" fill="white"/>
<path d="M66.8638 55.8014H65.1793V62.2409H66.8638V55.8014Z" fill="white"/>
<path d="M64.1277 57.4576H62.4432V62.234H64.1277V57.4576Z" fill="white"/>
<path d="M239.806 61.3315L240.467 61.9925C240.951 61.5802 241.534 61.3528 242.195 61.3528C242.749 61.3528 243.246 61.5163 243.673 61.7793L244.313 61.1396C243.708 60.7131 242.976 60.4643 242.195 60.4643C241.285 60.4572 240.432 60.7984 239.806 61.3315Z" fill="white"/>
<path d="M238.221 59.7463L238.861 60.386C239.749 59.5829 240.929 59.1067 242.194 59.1067C243.353 59.1067 244.419 59.4976 245.279 60.1728L245.919 59.5331C244.902 58.7157 243.623 58.2111 242.194 58.2111C240.68 58.2111 239.273 58.801 238.221 59.7463Z" fill="white"/>
<path d="M242.194 56.093C240.091 56.093 238.171 56.8962 236.729 58.2467L237.368 58.8864C238.633 57.6923 240.325 56.9815 242.194 56.9815C243.957 56.9815 245.563 57.6212 246.793 58.6589L247.419 58.0334C246.004 56.8038 244.192 56.093 242.194 56.093Z" fill="white"/>
<path d="M262.483 58.3391H262.149V57.7775C262.149 57.28 261.744 56.8749 261.247 56.8749H253.968C253.471 56.8749 253.066 57.28 253.066 57.7775V60.5495C253.066 61.0471 253.471 61.4522 253.968 61.4522H261.247C261.744 61.4522 262.149 61.0471 262.149 60.5495V59.9667H262.483V58.3391ZM262.071 60.5424C262.071 60.9973 261.701 61.3598 261.254 61.3598H253.968C253.513 61.3598 253.151 60.9902 253.151 60.5424V57.7704C253.151 57.3156 253.521 56.9531 253.968 56.9531H261.247C261.701 56.9531 262.064 57.3227 262.064 57.7704V60.5424H262.071Z" fill="white"/>
<path d="M258.753 57.1592V61.1537H254.076C253.664 61.1537 253.337 60.8268 253.337 60.4145V57.9055C253.337 57.4933 253.664 57.1592 254.076 57.1592H258.753Z" fill="white"/>
</g>
<path d="M84.2563 139.304C84.2563 137.596 84.5894 136.06 85.2554 134.696C85.9321 133.332 86.8667 132.279 88.0591 131.538C89.2622 130.797 90.6318 130.426 92.168 130.426C94.542 130.426 96.4595 131.248 97.9204 132.891C99.3921 134.535 100.128 136.721 100.128 139.449V139.659C100.128 141.356 99.8003 142.882 99.145 144.235C98.5005 145.578 97.5713 146.625 96.3574 147.377C95.1543 148.129 93.7686 148.505 92.2002 148.505C89.8369 148.505 87.9194 147.683 86.4478 146.04C84.9868 144.396 84.2563 142.221 84.2563 139.514V139.304ZM87.2534 139.659C87.2534 141.592 87.6992 143.145 88.5908 144.316C89.4932 145.487 90.6963 146.072 92.2002 146.072C93.7148 146.072 94.918 145.481 95.8096 144.3C96.7012 143.107 97.147 141.442 97.147 139.304C97.147 137.392 96.6904 135.845 95.7773 134.664C94.875 133.471 93.6719 132.875 92.168 132.875C90.6963 132.875 89.5093 133.461 88.6069 134.632C87.7046 135.802 87.2534 137.478 87.2534 139.659ZM116.821 133.165H110.972V148.183H107.991V133.165H102.255V130.748H116.821V133.165ZM142.756 131.735C141.763 132.917 140.572 133.868 139.184 134.588C137.813 135.307 136.306 135.667 134.661 135.667C132.502 135.667 130.618 135.136 129.007 134.074C127.414 133.012 126.18 131.521 125.306 129.602C124.433 127.666 123.996 125.533 123.996 123.203C123.996 120.702 124.467 118.449 125.409 116.444C126.369 114.44 127.722 112.906 129.47 111.844C131.217 110.782 133.256 110.251 135.586 110.251C139.287 110.251 142.199 111.638 144.324 114.414C146.466 117.172 147.536 120.942 147.536 125.722V127.109C147.536 134.391 146.097 139.711 143.219 143.069C140.341 146.41 135.997 148.123 130.189 148.209H129.264V144.199H130.266C134.19 144.131 137.205 143.111 139.313 141.141C141.42 139.154 142.568 136.018 142.756 131.735ZM135.432 131.735C137.025 131.735 138.49 131.247 139.827 130.27C141.18 129.294 142.165 128.086 142.782 126.647V124.745C142.782 121.627 142.105 119.091 140.752 117.138C139.398 115.185 137.685 114.208 135.612 114.208C133.522 114.208 131.843 115.014 130.575 116.624C129.307 118.217 128.673 120.325 128.673 122.946C128.673 125.499 129.281 127.606 130.498 129.268C131.731 130.913 133.376 131.735 135.432 131.735ZM172.311 131.735C171.317 132.917 170.126 133.868 168.738 134.588C167.368 135.307 165.86 135.667 164.215 135.667C162.057 135.667 160.172 135.136 158.561 134.074C156.968 133.012 155.734 131.521 154.861 129.602C153.987 127.666 153.55 125.533 153.55 123.203C153.55 120.702 154.021 118.449 154.963 116.444C155.923 114.44 157.276 112.906 159.024 111.844C160.772 110.782 162.81 110.251 165.14 110.251C168.841 110.251 171.754 111.638 173.878 114.414C176.02 117.172 177.091 120.942 177.091 125.722V127.109C177.091 134.391 175.651 139.711 172.773 143.069C169.895 146.41 165.552 148.123 159.744 148.209H158.818V144.199H159.821C163.744 144.131 166.76 143.111 168.867 141.141C170.974 139.154 172.122 136.018 172.311 131.735ZM164.986 131.735C166.58 131.735 168.044 131.247 169.381 130.27C170.734 129.294 171.719 128.086 172.336 126.647V124.745C172.336 121.627 171.66 119.091 170.306 117.138C168.953 115.185 167.239 114.208 165.166 114.208C163.076 114.208 161.397 115.014 160.129 116.624C158.861 118.217 158.227 120.325 158.227 122.946C158.227 125.499 158.836 127.606 160.052 129.268C161.286 130.913 162.93 131.735 164.986 131.735ZM201.865 131.735C200.871 132.917 199.68 133.868 198.293 134.588C196.922 135.307 195.414 135.667 193.77 135.667C191.611 135.667 189.726 135.136 188.116 134.074C186.522 133.012 185.289 131.521 184.415 129.602C183.541 127.666 183.104 125.533 183.104 123.203C183.104 120.702 183.575 118.449 184.518 116.444C185.477 114.44 186.831 112.906 188.578 111.844C190.326 110.782 192.365 110.251 194.695 110.251C198.395 110.251 201.308 111.638 203.432 114.414C205.574 117.172 206.645 120.942 206.645 125.722V127.109C206.645 134.391 205.206 139.711 202.327 143.069C199.449 146.41 195.106 148.123 189.298 148.209H188.373V144.199H189.375C193.298 144.131 196.314 143.111 198.421 141.141C200.528 139.154 201.676 136.018 201.865 131.735ZM194.541 131.735C196.134 131.735 197.599 131.247 198.935 130.27C200.289 129.294 201.274 128.086 201.891 126.647V124.745C201.891 121.627 201.214 119.091 199.86 117.138C198.507 115.185 196.793 114.208 194.72 114.208C192.63 114.208 190.951 115.014 189.683 116.624C188.416 118.217 187.782 120.325 187.782 122.946C187.782 125.499 188.39 127.606 189.606 129.268C190.84 130.913 192.485 131.735 194.541 131.735ZM222.026 143.886H216.792V148.183H213.807V143.886H210.573V141.417H213.807V139.277H210.573V136.823H213.807V125.433H222.198C224.636 125.433 226.568 126.053 227.995 127.292C229.422 128.532 230.136 130.209 230.136 132.323C230.136 134.542 229.448 136.256 228.073 137.464C226.708 138.662 224.766 139.266 222.245 139.277H216.792V141.417H222.026V143.886ZM216.792 136.823H222.198C223.813 136.823 225.042 136.443 225.886 135.683C226.729 134.922 227.151 133.813 227.151 132.355C227.151 131.032 226.714 129.964 225.839 129.152C224.964 128.329 223.781 127.912 222.292 127.902H216.792V136.823Z" fill="white"/>
<path d="M82.908 205.042H89.082V207.703H82.908V214.699H80.0796V207.703H73.9056V205.042H80.0796V198.579H82.908V205.042Z" fill="#919191"/>
<circle cx="134.261" cy="206.629" r="19.7104" fill="#A8D538"/>
<path d="M137.809 208.661H130.388V206.365H137.809V208.661Z" fill="white"/>
<path d="M188.416 206.472L192.066 200.465H195.351L189.967 208.601L195.518 216.919H192.264L188.462 210.76L184.66 216.919H181.391L186.941 208.601L181.558 200.465H184.812L188.416 206.472Z" fill="#919191"/>
<path d="M245.976 480.62H233.294V478.172H245.976V480.62ZM245.976 486.931H233.294V484.498H245.976V486.931Z" fill="#A8D538"/>
<path d="M81.8879 492.999C81.7257 492.674 81.5939 492.097 81.4926 491.265C80.1848 492.624 78.6235 493.303 76.8089 493.303C75.1868 493.303 73.8537 492.847 72.8095 491.934C71.7754 491.012 71.2584 489.846 71.2584 488.437C71.2584 486.723 71.9072 485.395 73.2048 484.453C74.5126 483.5 76.3476 483.023 78.7097 483.023H81.4469V481.731C81.4469 480.747 81.1529 479.967 80.5649 479.389C79.9769 478.801 79.1102 478.507 77.9646 478.507C76.9609 478.507 76.1195 478.76 75.4402 479.267C74.761 479.774 74.4214 480.387 74.4214 481.107H71.5929C71.5929 480.286 71.8819 479.495 72.4597 478.735C73.0477 477.964 73.8385 477.356 74.832 476.91C75.8356 476.464 76.9356 476.241 78.1319 476.241C80.0276 476.241 81.5128 476.717 82.5874 477.67C83.6621 478.613 84.2196 479.916 84.2602 481.578V489.151C84.2602 490.662 84.4528 491.863 84.8381 492.755V492.999H81.8879ZM77.2194 490.855C78.1014 490.855 78.9378 490.627 79.7286 490.17C80.5193 489.714 81.0921 489.121 81.4469 488.391V485.015H79.2419C75.7951 485.015 74.0716 486.024 74.0716 488.041C74.0716 488.923 74.3656 489.613 74.9536 490.109C75.5416 490.606 76.2969 490.855 77.2194 490.855ZM95.2699 491.007C96.2736 491.007 97.1505 490.703 97.9007 490.094C98.6509 489.486 99.0666 488.726 99.1477 487.813H101.809C101.758 488.756 101.434 489.653 100.836 490.505C100.237 491.356 99.4366 492.036 98.4329 492.543C97.4394 493.049 96.3851 493.303 95.2699 493.303C93.0295 493.303 91.2452 492.558 89.9171 491.068C88.5992 489.567 87.9402 487.519 87.9402 484.924V484.453C87.9402 482.851 88.2342 481.426 88.8222 480.179C89.4102 478.932 90.2517 477.964 91.3466 477.275C92.4516 476.586 93.7543 476.241 95.2547 476.241C97.0998 476.241 98.6306 476.793 99.8472 477.898C101.074 479.003 101.728 480.438 101.809 482.202H99.1477C99.0666 481.137 98.661 480.266 97.9311 479.586C97.2113 478.897 96.3192 478.552 95.2547 478.552C93.8253 478.552 92.7152 479.069 91.9244 480.103C91.1438 481.127 90.7535 482.613 90.7535 484.559V485.091C90.7535 486.987 91.1438 488.447 91.9244 489.471C92.705 490.495 93.8202 491.007 95.2699 491.007Z" fill="#A8D538"/>
<path d="M94.8021 255.502L85.6324 276.061H82.6823L91.8216 256.232H79.8386V253.92H94.8021V255.502Z" fill="#919191"/>
<path d="M92.3843 321.923H95.456V324.219H92.3843V329.359H89.5558V324.219H79.4737V322.562L89.3885 307.218H92.3843V321.923ZM82.6671 321.923H89.5558V311.065L89.2213 311.674L82.6671 321.923Z" fill="#919191"/>
<path d="M89.7535 382.657H86.925V363.907L81.2529 365.99V363.435L89.3125 360.409H89.7535V382.657Z" fill="#919191"/>
<path d="M80.8575 434.479C80.8575 433.993 80.9994 433.587 81.2833 433.263C81.5773 432.938 82.0132 432.776 82.5911 432.776C83.1689 432.776 83.6049 432.938 83.8989 433.263C84.203 433.587 84.3551 433.993 84.3551 434.479C84.3551 434.946 84.203 435.336 83.8989 435.65C83.6049 435.964 83.1689 436.121 82.5911 436.121C82.0132 436.121 81.5773 435.964 81.2833 435.65C80.9994 435.336 80.8575 434.946 80.8575 434.479Z" fill="#919191"/>
<path d="M172.8 259.699C172.8 260.804 172.506 261.787 171.918 262.649C171.34 263.511 170.554 264.185 169.561 264.672C170.717 265.168 171.629 265.893 172.298 266.846C172.977 267.799 173.317 268.879 173.317 270.085C173.317 272.001 172.668 273.527 171.37 274.662C170.083 275.798 168.385 276.366 166.276 276.366C164.147 276.366 162.439 275.798 161.151 274.662C159.874 273.517 159.235 271.991 159.235 270.085C159.235 268.889 159.56 267.809 160.209 266.846C160.868 265.883 161.775 265.153 162.931 264.656C161.947 264.17 161.172 263.496 160.604 262.634C160.036 261.772 159.752 260.794 159.752 259.699C159.752 257.834 160.351 256.353 161.547 255.259C162.743 254.164 164.32 253.616 166.276 253.616C168.223 253.616 169.794 254.164 170.99 255.259C172.197 256.353 172.8 257.834 172.8 259.699ZM170.504 270.024C170.504 268.788 170.108 267.779 169.318 266.998C168.537 266.218 167.513 265.827 166.246 265.827C164.978 265.827 163.96 266.213 163.189 266.983C162.429 267.753 162.049 268.767 162.049 270.024C162.049 271.281 162.419 272.27 163.159 272.99C163.909 273.709 164.948 274.069 166.276 274.069C167.594 274.069 168.628 273.709 169.378 272.99C170.129 272.26 170.504 271.271 170.504 270.024ZM166.276 255.928C165.171 255.928 164.274 256.272 163.585 256.962C162.905 257.641 162.566 258.569 162.566 259.745C162.566 260.87 162.9 261.782 163.569 262.482C164.249 263.171 165.151 263.516 166.276 263.516C167.401 263.516 168.299 263.171 168.968 262.482C169.647 261.782 169.987 260.87 169.987 259.745C169.987 258.619 169.637 257.702 168.937 256.992C168.238 256.282 167.351 255.928 166.276 255.928Z" fill="#919191"/>
<path d="M160.665 318.258L161.79 307.218H173.134V309.818H164.178L163.509 315.856C164.593 315.217 165.825 314.898 167.204 314.898C169.221 314.898 170.823 315.567 172.009 316.905C173.195 318.233 173.788 320.032 173.788 322.303C173.788 324.584 173.17 326.384 171.933 327.702C170.706 329.009 168.988 329.663 166.778 329.663C164.821 329.663 163.225 329.121 161.988 328.036C160.751 326.951 160.046 325.451 159.874 323.535H162.535C162.708 324.802 163.159 325.76 163.889 326.409C164.619 327.048 165.582 327.367 166.778 327.367C168.086 327.367 169.11 326.921 169.85 326.029C170.6 325.137 170.975 323.905 170.975 322.334C170.975 320.854 170.57 319.667 169.759 318.775C168.958 317.873 167.888 317.422 166.55 317.422C165.323 317.422 164.36 317.691 163.661 318.228L162.915 318.836L160.665 318.258Z" fill="#919191"/>
<path d="M173.88 382.657H159.372V380.634L167.036 372.118C168.172 370.831 168.953 369.787 169.378 368.986C169.814 368.175 170.032 367.338 170.032 366.477C170.032 365.321 169.682 364.373 168.983 363.633C168.283 362.893 167.351 362.523 166.185 362.523C164.786 362.523 163.696 362.923 162.915 363.724C162.145 364.515 161.76 365.62 161.76 367.039H158.946C158.946 365.002 159.6 363.354 160.908 362.097C162.226 360.84 163.985 360.211 166.185 360.211C168.243 360.211 169.87 360.754 171.066 361.839C172.263 362.913 172.861 364.348 172.861 366.142C172.861 368.322 171.472 370.917 168.694 373.928L162.763 380.36H173.88V382.657Z" fill="#919191"/>
<path d="M173.256 426.511C173.256 429.806 172.693 432.254 171.568 433.856C170.443 435.457 168.684 436.258 166.291 436.258C163.929 436.258 162.18 435.478 161.045 433.917C159.91 432.345 159.322 430.003 159.281 426.891V423.135C159.281 419.881 159.844 417.463 160.969 415.881C162.094 414.3 163.858 413.509 166.261 413.509C168.643 413.509 170.397 414.274 171.522 415.805C172.648 417.326 173.226 419.678 173.256 422.861V426.511ZM170.443 422.663C170.443 420.281 170.108 418.547 169.439 417.463C168.77 416.368 167.711 415.82 166.261 415.82C164.821 415.82 163.772 416.363 163.113 417.448C162.454 418.532 162.115 420.2 162.094 422.451V426.952C162.094 429.344 162.439 431.113 163.128 432.259C163.828 433.394 164.882 433.962 166.291 433.962C167.68 433.962 168.709 433.425 169.378 432.35C170.058 431.276 170.412 429.583 170.443 427.271V422.663Z" fill="#919191"/>
<path d="M247.268 266.329C246.68 267.029 245.975 267.591 245.154 268.017C244.343 268.443 243.451 268.656 242.478 268.656C241.2 268.656 240.085 268.341 239.132 267.713C238.189 267.084 237.459 266.202 236.942 265.067C236.425 263.921 236.167 262.659 236.167 261.28C236.167 259.8 236.446 258.467 237.003 257.281C237.571 256.095 238.372 255.188 239.406 254.559C240.44 253.93 241.646 253.616 243.025 253.616C245.215 253.616 246.938 254.437 248.195 256.08C249.463 257.712 250.096 259.942 250.096 262.771V263.592C250.096 267.9 249.245 271.048 247.541 273.035C245.838 275.012 243.268 276.026 239.832 276.077H239.284V273.704H239.877C242.199 273.664 243.983 273.061 245.23 271.895C246.477 270.719 247.156 268.864 247.268 266.329ZM242.934 266.329C243.877 266.329 244.743 266.04 245.534 265.462C246.335 264.884 246.918 264.17 247.283 263.318V262.193C247.283 260.348 246.883 258.847 246.082 257.692C245.281 256.536 244.267 255.958 243.04 255.958C241.803 255.958 240.81 256.435 240.06 257.388C239.31 258.33 238.934 259.577 238.934 261.128C238.934 262.639 239.294 263.886 240.014 264.869C240.744 265.842 241.717 266.329 242.934 266.329Z" fill="#919191"/>
<path d="M247.526 307.203V309.59H247.009C244.819 309.631 243.076 310.28 241.778 311.537C240.48 312.794 239.73 314.563 239.528 316.844C240.693 315.506 242.285 314.837 244.302 314.837C246.229 314.837 247.765 315.516 248.91 316.874C250.066 318.233 250.644 319.987 250.644 322.136C250.644 324.417 250.02 326.242 248.773 327.61C247.536 328.979 245.874 329.663 243.785 329.663C241.667 329.663 239.948 328.852 238.63 327.23C237.312 325.598 236.653 323.5 236.653 320.935V319.855C236.653 315.78 237.52 312.667 239.254 310.518C240.997 308.359 243.588 307.254 247.024 307.203H247.526ZM243.831 317.179C242.868 317.179 241.981 317.467 241.17 318.045C240.359 318.623 239.796 319.348 239.482 320.22V321.254C239.482 323.079 239.892 324.549 240.714 325.664C241.535 326.779 242.559 327.337 243.785 327.337C245.053 327.337 246.046 326.87 246.766 325.938C247.496 325.005 247.861 323.783 247.861 322.273C247.861 320.752 247.491 319.525 246.751 318.593C246.021 317.65 245.048 317.179 243.831 317.179Z" fill="#919191"/>
<path d="M240.577 370.218H242.691C244.019 370.197 245.063 369.848 245.823 369.168C246.583 368.489 246.964 367.572 246.964 366.416C246.964 363.821 245.671 362.523 243.086 362.523C241.869 362.523 240.896 362.873 240.166 363.572C239.446 364.262 239.087 365.179 239.087 366.325H236.273C236.273 364.571 236.912 363.116 238.189 361.96C239.477 360.794 241.109 360.211 243.086 360.211C245.174 360.211 246.812 360.764 247.998 361.869C249.184 362.974 249.777 364.51 249.777 366.477C249.777 367.44 249.463 368.372 248.834 369.275C248.216 370.177 247.369 370.851 246.295 371.297C247.511 371.682 248.449 372.321 249.108 373.213C249.777 374.105 250.111 375.195 250.111 376.483C250.111 378.47 249.463 380.046 248.165 381.212C246.867 382.378 245.179 382.961 243.101 382.961C241.023 382.961 239.33 382.398 238.022 381.273C236.724 380.148 236.076 378.662 236.076 376.817H238.904C238.904 377.983 239.284 378.916 240.045 379.615C240.805 380.315 241.824 380.665 243.101 380.665C244.46 380.665 245.499 380.31 246.218 379.6C246.938 378.89 247.298 377.872 247.298 376.544C247.298 375.256 246.903 374.268 246.112 373.578C245.321 372.889 244.181 372.534 242.691 372.514H240.577V370.218Z" fill="#919191"/>
<path d="M238.843 424.052L240.387 421.511H241.777L239.499 424.953L241.848 428.472H240.471L238.862 425.867L237.254 428.472H235.87L238.219 424.953L235.941 421.511H237.318L238.843 424.052Z" fill="#919191"/>
<path d="M229.336 417.22H250.98C251.754 417.22 252.381 417.847 252.381 418.621V431.399C252.381 432.173 251.754 432.8 250.98 432.8H229.444C229.086 432.8 228.742 432.663 228.482 432.418L220.728 425.097C220.086 424.492 220.157 423.451 220.875 422.938L228.522 417.48C228.759 417.311 229.044 417.22 229.336 417.22Z" stroke="#D3D3D3" stroke-width="0.466956"/>
<path d="M239.068 218.82H236.65L245.896 194.778H248.298L239.068 218.82Z" fill="#919191"/>
<defs>
<filter id="filter0_d" x="0.123806" y="0.201347" width="322.912" height="572.767" filterUnits="userSpaceOnUse" color-interpolation-filters="sRGB">
<feFlood flood-opacity="0" result="BackgroundImageFix"/>
<feColorMatrix in="SourceAlpha" type="matrix" values="0 0 0 0 0 0 0 0 0 0 0 0 0 0 0 0 0 0 127 0"/>
<feOffset dy="1.86782"/>
<feGaussianBlur stdDeviation="17.5109"/>
<feColorMatrix type="matrix" values="0 0 0 0 0 0 0 0 0 0 0 0 0 0 0 0 0 0 0.25 0"/>
<feBlend mode="normal" in2="BackgroundImageFix" result="effect1_dropShadow"/>
<feBlend mode="normal" in="SourceGraphic" in2="effect1_dropShadow" result="shape"/>
</filter>
<linearGradient id="paint0_linear" x1="157.533" y1="62.5366" x2="157.533" y2="206.784" gradientUnits="userSpaceOnUse">
<stop stop-color="#ACDA3A"/>
<stop offset="1" stop-color="#ACDA3A" stop-opacity="0"/>
</linearGradient>
</defs>
</svg>
