<svg width="28" height="28" viewBox="0 0 28 28" fill="none" xmlns="http://www.w3.org/2000/svg">
<path d="M20.1359 0.374756H7.78052C3.59144 0.374756 0.168457 3.78144 0.168457 7.98683V20.3422C0.168457 24.5313 3.57514 27.9542 7.78052 27.9542H20.1359C24.325 27.9542 27.7479 24.5476 27.7479 20.3422V7.98683C27.7479 3.78144 24.3413 0.374756 20.1359 0.374756ZM25.303 20.3259C25.303 23.1784 22.9884 25.4929 20.1359 25.4929H7.78052C4.92804 25.4929 2.61345 23.1784 2.61345 20.3259V7.97052C2.61345 5.11804 4.92804 2.80344 7.78052 2.80344H20.1359C22.9884 2.80344 25.303 5.11804 25.303 7.97052V20.3259Z" fill="white"/>
<path d="M13.9744 7.04224C10.0625 7.04224 6.86768 10.2207 6.86768 14.149C6.86768 18.061 10.0462 21.2558 13.9744 21.2558C17.9027 21.2558 21.0649 18.061 21.0649 14.149C21.0649 10.237 17.8864 7.04224 13.9744 7.04224ZM13.9744 18.8108C11.4154 18.8108 9.31267 16.7244 9.31267 14.149C9.31267 11.5736 11.3991 9.48723 13.9744 9.48723C16.5498 9.48723 18.6199 11.5899 18.6199 14.149C18.6199 16.7244 16.5335 18.8108 13.9744 18.8108Z" fill="white"/>
<circle cx="21.8285" cy="6.7662" r="1.38852" fill="white"/>
</svg>
