<svg width="701" height="352" viewBox="0 0 701 352" fill="none" xmlns="http://www.w3.org/2000/svg">
<mask id="mask0" mask-type="alpha" maskUnits="userSpaceOnUse" x="0" y="-30" width="534" height="382">
<path d="M0.500488 -29.24H533.489V351.734H0.500488V-29.24Z" fill="#C4C4C4"/>
</mask>
<g mask="url(#mask0)">
<path d="M-64.1582 319.616L354.666 253.569L330.981 64.4687L-87.8434 130.516L-64.1582 319.616Z" fill="#FF4000"/>
<path d="M-51.7153 239.537L448.908 160.591L429.823 8.22365L-70.7996 87.1697L-51.7153 239.537Z" fill="#FF4000"/>
</g>
<path d="M115.686 178.143L101.623 180.36L101.921 163.615L67.0144 169.119L66.7089 185.818L52.3275 188.085L51.6968 158.94L55.5796 158.421C60.7973 154.241 63.9102 147.064 64.9185 136.893L67.8533 101.076L111.726 94.1582L110.861 149.612L117.778 148.521L115.686 178.143ZM73.5778 155.724L95.3415 152.059L96.012 109.276L82.4499 111.414L80.6797 133.615C79.7563 142.747 77.389 150.116 73.5778 155.724ZM160.908 141.628L139.746 144.965L135.827 158.269L118.669 160.974L143.31 89.1783L157.964 86.8678L180.655 151.201L164.453 153.756L160.908 141.628ZM143.626 131.713L157.371 129.546L150.856 107.158L143.626 131.713ZM201.959 124.801L201.589 147.9L186.025 150.354L187.046 82.2826L210.855 78.5752C218.228 77.4128 224.346 78.5471 229.209 81.9781C234.102 85.4043 236.805 90.4197 237.318 97.0242C237.657 101.542 236.841 105.635 234.87 109.304C232.899 112.973 230.001 115.995 226.178 118.37C222.385 120.741 217.955 122.325 212.888 123.124L201.959 124.801ZM202.153 112.13L211.543 110.743C215.472 110.03 218.29 108.28 219.996 105.492C221.698 102.674 222.051 99.4935 221.057 95.95C220.523 94.1375 219.58 92.7936 218.229 91.9182C216.904 91.0077 215.276 90.6425 213.346 90.8225L202.462 92.492L202.153 112.13ZM283.71 67.0415L299.685 64.5229L298.664 132.595L283.054 135.056L283.755 93.0608L260.48 138.615L244.461 141.141L245.527 73.0619L261.137 70.6007L260.443 112.641L283.71 67.0415ZM329.676 59.7942L343.25 104.763L358.211 55.2951L378.964 52.023L377.943 120.095L362.288 122.563L362.548 105.871L364.562 74.863L348.634 124.716L338.304 126.345L323.238 79.606L324.29 113.489L324.013 128.598L308.449 131.052L309.47 62.9801L329.676 59.7942Z" fill="white"/>
<path d="M100.062 206.164L72.21 210.556L72.0399 221.31L79.2378 220.222C83.8687 219.616 88.1129 219.911 91.9706 221.106C95.8585 222.297 98.9615 224.326 101.279 227.195C103.628 230.058 104.958 233.564 105.27 237.713C105.851 244.555 103.762 250.435 99.0026 255.352C94.2733 260.265 87.9189 263.35 79.9394 264.608L55.6822 268.433L56.7032 200.361L100.257 193.494L100.062 206.164ZM71.8383 233.936L71.5395 253.339L78.6918 252.258C81.9382 251.746 84.5837 250.381 86.6281 248.162C88.698 245.907 89.719 243.212 89.6909 240.076C89.6835 237.465 88.8448 235.499 87.1749 234.176C85.5001 232.823 83.2878 232.301 80.5381 232.61L71.8383 233.936ZM149.621 240.935L128.459 244.271L124.54 257.576L107.382 260.281L132.023 188.485L146.678 186.175L169.368 250.508L153.166 253.062L149.621 240.935ZM132.34 231.02L146.084 228.852L139.569 206.465L132.34 231.02ZM228.532 241.18L213.058 243.619L213.474 215.195L190.764 218.776L190.303 247.207L174.738 249.661L175.759 181.589L191.369 179.128L190.92 206.158L213.676 202.57L214.079 175.548L229.598 173.101L228.532 241.18ZM290.206 232.388C283.425 233.364 277.567 232.002 272.631 228.303C267.72 224.569 264.391 218.937 262.644 211.407L262.28 209.692L255.226 210.805L254.837 237.032L239.272 239.486L240.339 171.407L255.858 168.96L255.401 198.603L261.591 197.628C261.799 191.656 263.075 186.137 265.417 181.073C267.785 175.973 271.017 171.825 275.116 168.629C279.244 165.429 283.973 163.47 289.301 162.755C293.836 162.133 297.946 162.558 301.629 164.029C305.338 165.465 308.503 167.889 311.125 171.301C313.746 174.712 315.599 178.773 316.684 183.484C317.457 186.813 317.85 190.685 317.862 195.099C317.899 199.477 317.347 203.762 316.204 207.953C315.087 212.11 313.382 215.892 311.09 219.301C308.798 222.709 305.909 225.59 302.425 227.943C298.966 230.261 294.893 231.743 290.206 232.388ZM301.052 185.809C299.553 178.271 295.988 174.791 290.357 175.368C286.015 175.835 282.721 178.111 280.473 182.197C278.221 186.252 277.197 191.886 277.401 199.099C277.513 203.559 277.834 206.976 278.364 209.349C279.883 217.007 283.48 220.498 289.157 219.821C292.887 219.419 295.865 217.597 298.09 214.354C300.31 211.081 301.586 206.651 301.918 201.064C302.245 195.446 301.956 190.361 301.052 185.809Z" fill="white"/>
<g filter="url(#filter0_d)">
<path fill-rule="evenodd" clip-rule="evenodd" d="M598.934 134.674C607.317 132.894 615.689 131.011 624.051 129.033C627.488 128.218 630.803 130.423 631.451 133.957C631.485 134.173 631.519 134.381 631.54 134.591L640.418 238.543C640.71 241.991 638.354 245.186 635.044 245.838C597.313 253.33 559.396 259.64 521.356 264.755C484.936 269.609 448.938 273.161 413.335 275.415C410.01 275.626 407.192 273.126 406.894 269.698L405.421 252.461C390.319 253.823 375.285 254.982 360.317 255.949C358.581 256.066 356.897 255.545 355.604 254.491C354.311 253.438 353.505 251.93 353.35 250.274L344.026 146.318C343.947 145.405 344.068 144.477 344.382 143.593C344.696 142.71 345.196 141.891 345.85 141.189C346.503 140.487 347.295 139.918 348.176 139.518C349.056 139.118 350.005 138.897 350.96 138.869C390.759 137.493 430.558 134.238 470.215 129.118C509.958 123.99 549.543 117.01 588.964 108.155C589.903 107.943 590.867 107.919 591.797 108.086C592.726 108.254 593.599 108.608 594.36 109.127C595.122 109.645 595.754 110.317 596.218 111.099C596.681 111.88 596.965 112.755 597.051 113.666L598.934 134.674Z" fill="#FFD800"/>
<path fill-rule="evenodd" clip-rule="evenodd" d="M638.829 224.749C647.773 223.92 656.723 223.19 665.68 222.554C669.363 222.294 672.399 219.209 672.459 215.663C672.457 215.448 672.456 215.24 672.441 215.036L663.712 113.813C663.42 110.457 660.443 108.135 656.921 108.512C616.752 112.741 576.596 118.147 536.518 124.722C498.154 131.059 460.449 138.503 423.374 147.06C419.912 147.859 417.437 151.075 417.72 154.415L419.166 171.2C403.371 174.444 404.178 171.371 388.587 174.949C386.779 175.359 385.133 176.359 383.982 177.747C382.83 179.134 382.26 180.805 382.385 182.422L390.654 283.781C390.73 284.671 391.014 285.514 391.49 286.258C391.966 287.001 392.622 287.627 393.416 288.097C394.21 288.566 395.124 288.867 396.1 288.982C397.076 289.096 398.091 289.021 399.081 288.761C440.328 278.112 465.4 275.735 507.146 268.679C548.98 261.604 590.972 256.331 633.116 252.886C634.119 252.806 635.118 252.539 636.046 252.101C636.975 251.663 637.814 251.065 638.509 250.345C639.204 249.624 639.741 248.797 640.084 247.917C640.427 247.037 640.569 246.123 640.501 245.233L638.829 224.749Z" fill="#FFD800"/>
<path d="M411.901 188.209C409.474 188.508 407.274 188.33 405.301 187.675C403.347 186.994 401.755 185.912 400.527 184.429C399.322 182.943 398.585 181.157 398.316 179.072C397.959 176.307 398.277 173.77 399.27 171.461C400.285 169.148 401.849 167.252 403.962 165.772C406.095 164.266 408.613 163.335 411.516 162.977C413.807 162.695 415.891 162.865 417.768 163.486C419.642 164.084 421.108 165.089 422.166 166.502L416.965 171.735C415.66 170.007 413.952 169.274 411.843 169.533C410.596 169.687 409.524 170.129 408.627 170.861C407.731 171.593 407.082 172.548 406.681 173.726C406.277 174.88 406.166 176.16 406.347 177.565C406.528 178.971 407.117 180.049 408.112 180.802C409.127 181.529 410.372 181.801 411.846 181.62C413.865 181.371 415.516 180.236 416.798 178.213L422.11 182.153C420.946 184.023 419.526 185.429 417.851 186.372C416.198 187.312 414.215 187.925 411.901 188.209ZM446.177 159.264L444.483 183.647L436.454 184.635L437.704 166.454L433.621 166.956L434.066 160.755L446.177 159.264ZM476.123 175.54L467.04 176.657L465.193 181.098L456.722 182.14L468.826 156.477L476.719 155.505L485.435 178.607L477.44 179.591L476.123 175.54ZM474.255 169.899L472.314 163.956L469.594 170.472L474.255 169.899ZM512.359 151.119L510.664 175.502L502.772 176.473L503.941 158.475L496.695 159.366L495.526 177.365L487.633 178.336L489.327 153.953L512.359 151.119ZM526.98 149.319C530.155 148.929 532.705 149.317 534.629 150.485C536.554 151.652 537.677 153.482 537.999 155.975C538.256 157.97 537.983 159.788 537.181 161.429C536.402 163.067 535.148 164.419 533.419 165.483C531.712 166.545 529.657 167.224 527.253 167.52L523.137 168.027L522.734 174.016L514.705 175.004L516.399 150.622L526.98 149.319ZM526.863 161.283C527.975 161.146 528.802 160.768 529.344 160.149C529.883 159.507 530.088 158.687 529.96 157.69C529.752 156.081 528.651 155.399 526.655 155.645L523.967 155.976L523.564 161.689L526.863 161.283ZM548.968 152.76L548.783 155.615L558.853 154.376L558.441 160.297L548.338 161.541L548.129 164.744L560.07 163.274L559.625 169.476L539.826 171.913L541.52 147.53L560.877 145.148L560.433 151.349L548.968 152.76ZM587.812 141.833L586.118 166.215L578.225 167.187L579.463 149.18L574.053 149.846L573.599 154.633C573.272 158.173 572.778 160.95 572.116 162.966C571.455 164.981 570.532 166.487 569.347 167.485C568.182 168.457 566.602 169.066 564.606 169.312C563.359 169.465 562.24 169.453 561.249 169.276L562.121 162.642C562.402 162.676 562.69 162.675 562.985 162.639C563.711 162.55 564.301 162.212 564.755 161.627C565.232 161.039 565.622 160.127 565.923 158.893C566.248 157.656 566.515 155.977 566.725 153.856L567.706 144.307L587.812 141.833ZM613.115 138.753L611.416 163.102L603.524 164.073L603.952 158.288L601.911 158.539L597.876 164.768L589.201 165.836L594.494 158.105C593.275 157.587 592.3 156.809 591.567 155.771C590.834 154.734 590.371 153.467 590.178 151.971C589.915 149.931 590.217 148.075 591.084 146.403C591.952 144.731 593.295 143.357 595.115 142.281C596.931 141.182 599.098 140.478 601.616 140.168L613.115 138.753ZM601.631 146.452C600.452 146.597 599.573 147.016 598.994 147.709C598.435 148.376 598.226 149.254 598.366 150.342C598.474 151.18 598.759 151.778 599.219 152.136C599.677 152.471 600.349 152.584 601.233 152.475L604.363 152.09L604.761 146.067L601.631 146.452ZM417.049 205.165L415.355 229.548L407.462 230.519L408.632 212.521L401.386 213.413L400.216 231.411L392.324 232.382L394.018 208L417.049 205.165ZM432.768 227.957C430.341 228.256 428.152 228.076 426.201 227.419C424.27 226.735 422.702 225.651 421.496 224.164C420.313 222.675 419.588 220.888 419.319 218.803C418.962 216.038 419.28 213.501 420.273 211.192C421.285 208.857 422.847 206.949 424.961 205.469C427.096 203.986 429.604 203.067 432.485 202.713C434.911 202.414 437.09 202.606 439.022 203.29C440.973 203.947 442.54 205.021 443.722 206.51C444.928 207.996 445.665 209.782 445.934 211.867C446.29 214.632 445.963 217.182 444.95 219.517C443.958 221.826 442.394 223.722 440.258 225.205C438.145 226.685 435.648 227.603 432.768 227.957ZM432.611 221.381C433.881 221.224 434.939 220.76 435.784 219.989C436.652 219.214 437.263 218.241 437.619 217.069C437.975 215.897 438.068 214.654 437.899 213.339C437.717 211.934 437.153 210.864 436.206 210.129C435.281 209.391 434.093 209.111 432.642 209.29C431.372 209.446 430.303 209.911 429.435 210.686C428.59 211.458 427.989 212.429 427.633 213.601C427.278 214.773 427.185 216.016 427.354 217.331C427.535 218.736 428.088 219.808 429.013 220.546C429.96 221.281 431.159 221.559 432.611 221.381ZM476.383 202.87L471.545 208.231C473.032 208.509 474.238 209.109 475.164 210.031C476.089 210.953 476.641 212.105 476.819 213.488C477.035 215.165 476.698 216.749 475.808 218.24C474.94 219.728 473.637 220.971 471.899 221.967C470.161 222.964 468.159 223.602 465.891 223.881C464.144 224.096 462.451 224.097 460.811 223.884C459.193 223.669 457.718 223.217 456.385 222.53L459.306 216.506C460.287 216.961 461.329 217.271 462.433 217.434C463.537 217.597 464.599 217.616 465.619 217.491C466.731 217.354 467.559 217.079 468.105 216.667C468.648 216.232 468.877 215.685 468.792 215.028C468.67 214.076 467.815 213.698 466.227 213.893L462.927 214.3L463.278 209.249L466.968 205.169L458.531 206.207L458.976 200.005L476.734 197.82L476.383 202.87ZM489.543 220.97C487.683 221.199 486.015 221.036 484.538 220.481C483.058 219.903 481.843 218.971 480.894 217.683C479.964 216.37 479.374 214.739 479.123 212.79C478.743 209.844 478.956 207.124 479.764 204.63C480.568 202.113 481.859 200.067 483.637 198.489C485.435 196.887 487.559 195.935 490.008 195.633C491.868 195.404 493.538 195.579 495.018 196.156C496.495 196.711 497.698 197.645 498.628 198.958C499.577 200.246 500.178 201.864 500.429 203.813C500.809 206.759 500.597 209.491 499.792 212.007C498.985 214.501 497.682 216.549 495.884 218.152C494.106 219.729 491.993 220.668 489.543 220.97ZM489.531 214.444C490.393 214.338 491.066 213.749 491.549 212.676C492.033 211.604 492.333 210.358 492.45 208.939C492.586 207.495 492.578 206.184 492.426 205.005C492.161 202.943 491.358 201.994 490.02 202.159C489.159 202.265 488.486 202.854 488.002 203.927C487.518 204.999 487.208 206.258 487.072 207.702C486.955 209.121 486.973 210.419 487.125 211.598C487.391 213.66 488.193 214.609 489.531 214.444ZM514.715 193.145L522.608 192.174L521.652 204.862L530.705 191.177L538.359 190.235L536.665 214.618L528.772 215.589L529.766 202.931L520.71 216.582L513.021 217.528L514.715 193.145ZM564.428 186.474C566.718 186.192 568.795 186.397 570.658 187.089C572.544 187.778 574.069 188.879 575.232 190.394C576.415 191.883 577.143 193.693 577.418 195.823C577.748 198.384 577.36 200.826 576.255 203.149C575.171 205.47 573.544 207.408 571.371 208.965C569.199 210.522 566.741 211.469 563.996 211.807C561.887 212.066 559.955 211.913 558.2 211.346C556.445 210.779 554.967 209.856 553.765 208.576C552.563 207.297 551.729 205.742 551.263 203.911L549.425 204.137L548.787 213.126L540.895 214.097L542.589 189.715L550.482 188.743L549.868 197.383L551.399 197.195C551.922 195.358 552.799 193.673 554.03 192.14C555.283 190.604 556.803 189.347 558.589 188.367C560.395 187.362 562.341 186.731 564.428 186.474ZM563.874 205.226C565.008 205.086 566.021 204.639 566.915 203.884C567.805 203.107 568.462 202.128 568.886 200.948C569.31 199.768 569.438 198.532 569.272 197.24C569.085 195.79 568.563 194.691 567.706 193.945C566.873 193.195 565.821 192.899 564.55 193.055C563.416 193.195 562.404 193.653 561.514 194.43C560.62 195.185 559.962 196.153 559.538 197.333C559.111 198.49 558.981 199.715 559.148 201.007C559.338 202.48 559.85 203.591 560.684 204.341C561.54 205.087 562.603 205.382 563.874 205.226ZM604.767 182.062L603.073 206.445L595.044 207.433L595.682 198.445L588.266 199.357L587.628 208.346L579.599 209.334L581.293 184.951L589.322 183.963L588.708 192.603L596.124 191.69L596.738 183.05L604.767 182.062ZM630.097 178.979L628.399 203.328L620.506 204.299L620.935 198.514L618.894 198.765L614.859 204.994L606.184 206.062L611.477 198.331C610.258 197.813 609.282 197.035 608.549 195.998C607.817 194.96 607.354 193.693 607.161 192.197C606.898 190.157 607.2 188.301 608.067 186.629C608.934 184.957 610.278 183.583 612.097 182.507C613.914 181.408 616.081 180.704 618.599 180.394L630.097 178.979ZM618.614 186.678C617.435 186.823 616.556 187.242 615.977 187.935C615.418 188.602 615.208 189.48 615.349 190.568C615.457 191.406 615.741 192.004 616.202 192.362C616.66 192.697 617.331 192.81 618.216 192.701L621.346 192.316L621.744 186.293L618.614 186.678Z" fill="#272626"/>
</g>
<g filter="url(#filter1_d)">
<path d="M122.216 315.645L121.389 320.897L125.616 320.231L125.299 326.377L120.468 327.139L119.589 332.846L113.763 333.765L114.642 328.058L111.268 328.59L110.389 334.297L104.563 335.216L105.442 329.509L101.144 330.187L101.461 324.04L106.363 323.267L107.19 318.015L102.963 318.681L103.28 312.535L108.111 311.773L108.99 306.066L114.815 305.147L113.936 310.854L117.311 310.322L118.19 304.615L124.016 303.696L123.137 309.403L127.435 308.726L127.118 314.872L122.216 315.645ZM116.39 316.564L113.016 317.096L112.188 322.348L115.563 321.816L116.39 316.564Z" fill="white"/>
</g>
<g filter="url(#filter2_d)">
<path d="M134.423 308.457L148.353 306.499L148.101 310.7L139.495 311.91L139.389 313.82L143.221 313.281C144.889 313.047 146.228 313.249 147.238 313.887C148.263 314.523 148.874 315.537 149.07 316.929C149.233 318.092 149.055 319.154 148.535 320.117C148.013 321.064 147.188 321.858 146.062 322.5C144.933 323.127 143.557 323.554 141.936 323.782L133.468 324.972L134.423 308.457ZM141.794 319.941C142.406 319.855 142.868 319.65 143.181 319.325C143.51 318.998 143.642 318.605 143.577 318.146C143.478 317.442 142.932 317.16 141.937 317.3L139.161 317.69L139.017 320.331L141.794 319.941ZM162.133 318.089L156.006 318.95L154.793 321.975L149.079 322.778L157.056 305.276L162.38 304.528L168.447 320.056L163.054 320.814L162.133 318.089ZM160.827 314.294L159.47 310.296L157.683 314.736L160.827 314.294ZM186.719 301.107L185.764 317.623L180.348 318.384L180.71 312.295L175.707 312.998L175.346 319.087L169.93 319.848L170.885 303.333L176.301 302.571L175.953 308.424L180.956 307.721L181.304 301.868L186.719 301.107ZM203.807 298.729L202.848 315.222L197.524 315.97L197.769 312.051L196.392 312.244L193.715 316.505L187.863 317.328L191.378 312.036C190.551 311.7 189.886 311.185 189.383 310.491C188.88 309.798 188.557 308.946 188.415 307.936C188.222 306.559 188.411 305.3 188.984 304.159C189.557 303.017 190.454 302.072 191.675 301.323C192.893 300.559 194.352 300.058 196.05 299.819L203.807 298.729ZM196.109 304.07C195.314 304.182 194.723 304.475 194.338 304.951C193.965 305.409 193.83 306.005 193.934 306.739C194.013 307.305 194.21 307.707 194.524 307.943C194.836 308.165 195.29 308.234 195.887 308.15L197.998 307.853L198.221 303.773L196.109 304.07ZM222.188 296.122L221.233 312.638L215.909 313.386L216.56 301.196L211.672 301.883L211.021 314.073L205.697 314.821L206.652 298.306L222.188 296.122ZM232.984 311.361C231.347 311.591 229.867 311.495 228.543 311.072C227.234 310.632 226.166 309.916 225.34 308.925C224.529 307.931 224.025 306.73 223.827 305.323C223.565 303.456 223.76 301.736 224.413 300.162C225.078 298.571 226.119 297.263 227.535 296.237C228.966 295.209 230.653 294.558 232.596 294.285C234.233 294.055 235.707 294.16 237.017 294.6C238.34 295.022 239.406 295.731 240.217 296.724C241.043 297.716 241.555 298.916 241.752 300.323C242.015 302.19 241.813 303.918 241.147 305.51C240.495 307.083 239.453 308.384 238.022 309.412C236.606 310.438 234.926 311.088 232.984 311.361ZM232.826 306.913C233.683 306.793 234.394 306.467 234.959 305.935C235.539 305.401 235.945 304.735 236.176 303.938C236.407 303.141 236.461 302.299 236.336 301.412C236.203 300.463 235.813 299.746 235.167 299.259C234.537 298.771 233.732 298.595 232.753 298.733C231.897 298.853 231.178 299.18 230.598 299.714C230.033 300.246 229.635 300.911 229.404 301.708C229.172 302.504 229.119 303.347 229.244 304.234C229.377 305.183 229.759 305.901 230.389 306.39C231.035 306.876 231.847 307.051 232.826 306.913ZM259.06 303.039L261.172 302.742L260.735 310.292L255.778 310.989L255.956 307.758L246.822 309.041L246.645 312.272L241.688 312.969L242.124 305.419L242.4 305.38C243.333 305.249 244.062 304.499 244.588 303.131C245.113 301.762 245.485 299.915 245.705 297.591L246.171 292.752L259.757 290.842L259.06 303.039ZM250.371 297.825C250.212 299.47 250.034 300.813 249.837 301.855C249.641 302.896 249.357 303.763 248.986 304.455L253.736 303.787L254.197 295.906L250.502 296.426L250.371 297.825ZM274.556 296.859L278.773 304.551L273.036 305.357L270.269 299.826L268.502 300.074L268.148 306.044L262.732 306.805L263.687 290.29L269.103 289.529L268.752 295.686L270.128 295.493L273.876 288.858L279.889 288.013L274.556 296.859ZM297.11 285.593L296.155 302.108L290.831 302.856L291.527 290.66L287.878 291.173L287.609 294.417C287.416 296.815 287.103 298.7 286.672 300.071C286.241 301.442 285.629 302.472 284.836 303.161C284.057 303.832 282.994 304.262 281.648 304.451C280.806 304.57 280.05 304.574 279.38 304.466L279.918 299.967C280.108 299.987 280.302 299.983 280.501 299.955C280.991 299.887 281.387 299.652 281.689 299.25C282.007 298.847 282.263 298.226 282.457 297.387C282.666 296.547 282.834 295.408 282.959 293.97L283.548 287.499L297.11 285.593ZM314.675 282.75C316.22 282.533 317.625 282.647 318.889 283.094C320.168 283.538 321.206 284.266 322.004 285.277C322.814 286.271 323.32 287.487 323.523 288.925C323.766 290.653 323.523 292.31 322.794 293.895C322.08 295.477 320.995 296.807 319.54 297.886C318.085 298.964 316.431 299.633 314.58 299.893C313.157 300.093 311.851 300.011 310.661 299.648C309.471 299.285 308.465 298.678 307.643 297.826C306.822 296.974 306.246 295.932 305.917 294.699L304.678 294.873L304.316 300.961L298.992 301.709L299.948 285.194L305.272 284.446L304.924 290.298L305.957 290.153C306.296 288.904 306.875 287.754 307.695 286.703C308.53 285.649 309.547 284.781 310.745 284.098C311.957 283.397 313.267 282.948 314.675 282.75ZM314.446 295.442C315.211 295.335 315.892 295.021 316.49 294.5C317.085 293.964 317.522 293.294 317.799 292.49C318.076 291.687 318.153 290.849 318.031 289.977C317.893 288.998 317.532 288.261 316.948 287.766C316.379 287.269 315.666 287.08 314.809 287.201C314.044 287.308 313.364 287.63 312.768 288.166C312.171 288.687 311.733 289.349 311.456 290.152C311.177 290.941 311.098 291.771 311.221 292.643C311.361 293.637 311.715 294.383 312.284 294.88C312.869 295.375 313.589 295.563 314.446 295.442ZM340.407 279.508L339.452 296.023L334.128 296.771L334.431 291.604C333.532 291.98 332.67 292.226 331.844 292.342C329.763 292.634 328.11 292.422 326.886 291.705C325.675 290.97 324.956 289.792 324.728 288.17C324.659 287.681 324.641 287.106 324.673 286.446L324.939 281.682L330.264 280.933L329.994 285.511C329.978 285.95 329.989 286.307 330.028 286.583C330.107 287.149 330.311 287.542 330.638 287.761C330.978 287.963 331.462 288.019 332.089 287.931C333.13 287.785 334 287.483 334.7 287.026L335.083 280.256L340.407 279.508Z" fill="white"/>
</g>
<defs>
<filter id="filter0_d" x="314.276" y="93.1132" width="387.909" height="240.51" filterUnits="userSpaceOnUse" color-interpolation-filters="sRGB">
<feFlood flood-opacity="0" result="BackgroundImageFix"/>
<feColorMatrix in="SourceAlpha" type="matrix" values="0 0 0 0 0 0 0 0 0 0 0 0 0 0 0 0 0 0 127 0"/>
<feOffset dy="14.863"/>
<feGaussianBlur stdDeviation="14.863"/>
<feColorMatrix type="matrix" values="0 0 0 0 0 0 0 0 0 0 0 0 0 0 0 0 0 0 0.4 0"/>
<feBlend mode="normal" in2="BackgroundImageFix" result="effect1_dropShadow"/>
<feBlend mode="normal" in="SourceGraphic" in2="effect1_dropShadow" result="shape"/>
</filter>
<filter id="filter1_d" x="99.8195" y="303.034" width="28.9396" height="34.168" filterUnits="userSpaceOnUse" color-interpolation-filters="sRGB">
<feFlood flood-opacity="0" result="BackgroundImageFix"/>
<feColorMatrix in="SourceAlpha" type="matrix" values="0 0 0 0 0 0 0 0 0 0 0 0 0 0 0 0 0 0 127 0"/>
<feOffset dy="0.662113"/>
<feGaussianBlur stdDeviation="0.662113"/>
<feColorMatrix type="matrix" values="0 0 0 0 0 0 0 0 0 0 0 0 0 0 0 0 0 0 0.7 0"/>
<feBlend mode="normal" in2="BackgroundImageFix" result="effect1_dropShadow"/>
<feBlend mode="normal" in="SourceGraphic" in2="effect1_dropShadow" result="shape"/>
</filter>
<filter id="filter2_d" x="132.144" y="278.846" width="209.587" height="48.113" filterUnits="userSpaceOnUse" color-interpolation-filters="sRGB">
<feFlood flood-opacity="0" result="BackgroundImageFix"/>
<feColorMatrix in="SourceAlpha" type="matrix" values="0 0 0 0 0 0 0 0 0 0 0 0 0 0 0 0 0 0 127 0"/>
<feOffset dy="0.662113"/>
<feGaussianBlur stdDeviation="0.662113"/>
<feColorMatrix type="matrix" values="0 0 0 0 0 0 0 0 0 0 0 0 0 0 0 0 0 0 0.6 0"/>
<feBlend mode="normal" in2="BackgroundImageFix" result="effect1_dropShadow"/>
<feBlend mode="normal" in="SourceGraphic" in2="effect1_dropShadow" result="shape"/>
</filter>
</defs>
</svg>
