<svg width="301" height="211" viewBox="0 0 301 211" fill="none" xmlns="http://www.w3.org/2000/svg">
<mask id="mask0" mask-type="alpha" maskUnits="userSpaceOnUse" x="-2" y="0" width="236" height="169">
<path d="M-1.07227 0.233398H233.773V168.098H-1.07227V0.233398Z" fill="#C4C4C4"/>
</mask>
<g mask="url(#mask0)">
<path d="M-29.562 153.946L154.98 124.844L144.544 41.5231L-39.9982 70.6246L-29.562 153.946Z" fill="#FF4000"/>
<path d="M-24.0796 118.661L196.504 83.8763L188.095 16.7405L-32.4885 51.5256L-24.0796 118.661Z" fill="#FF4000"/>
</g>
<path d="M49.7156 91.8328L43.5193 92.8097L43.6507 85.4316L28.2702 87.8567L28.1356 95.2147L21.7989 96.2138L21.521 83.3719L23.2318 83.1433C25.5308 81.3011 26.9024 78.1392 27.3467 73.6574L28.6398 57.8756L47.9708 54.8277L47.5897 79.2617L50.6377 78.7811L49.7156 91.8328ZM31.1621 81.9546L40.7517 80.3399L41.0471 61.4888L35.0713 62.431L34.2914 72.2131C33.8845 76.2368 32.8414 79.484 31.1621 81.9546ZM69.6415 75.7437L60.3169 77.2139L58.5901 83.0762L51.0302 84.2681L61.8875 52.6335L68.3445 51.6154L78.3422 79.9619L71.2034 81.0874L69.6415 75.7437ZM62.0269 71.3749L68.0828 70.42L65.2123 60.5559L62.0269 71.3749ZM87.7292 68.3295L87.5665 78.5075L80.7084 79.5888L81.1583 49.5951L91.6491 47.9615C94.8977 47.4493 97.5933 47.9491 99.7361 49.4609C101.892 50.9706 103.083 53.1804 103.309 56.0905C103.459 58.081 103.099 59.8845 102.23 61.5012C101.362 63.1178 100.085 64.4494 98.4007 65.496C96.7295 66.5405 94.7776 67.2387 92.545 67.5907L87.7292 68.3295ZM87.8148 62.7465L91.952 62.1353C93.6836 61.8212 94.9253 61.05 95.677 59.8217C96.4266 58.58 96.5824 57.1785 96.1444 55.6172C95.9088 54.8186 95.4935 54.2264 94.8984 53.8407C94.3145 53.4395 93.5972 53.2786 92.7466 53.3579L87.9508 54.0935L87.8148 62.7465ZM123.751 42.8796L130.789 41.7698L130.339 71.7635L123.461 72.848L123.77 54.3441L113.515 74.4162L106.456 75.5291L106.926 45.5323L113.804 44.4478L113.498 62.9717L123.751 42.8796ZM144.004 39.6862L149.985 59.5002L156.577 37.7039L165.721 36.2621L165.271 66.2558L158.373 67.3435L158.488 59.9886L159.375 46.3258L152.357 68.292L147.805 69.0097L141.167 48.4157L141.63 63.3452L141.509 70.0025L134.651 71.0838L135.1 41.09L144.004 39.6862Z" fill="white"/>
<path d="M42.8318 104.18L30.5594 106.115L30.4845 110.853L33.656 110.374C35.6965 110.107 37.5666 110.237 39.2663 110.763C40.9795 111.288 42.3467 112.182 43.368 113.446C44.4027 114.708 44.9888 116.253 45.1263 118.081C45.3824 121.095 44.4619 123.686 42.3648 125.853C40.281 128.017 37.4811 129.377 33.9652 129.931L23.277 131.616L23.7269 101.622L42.9175 98.5967L42.8318 104.18ZM30.3957 116.416L30.264 124.966L33.4155 124.489C34.8459 124.264 36.0115 123.662 36.9123 122.684C37.8244 121.691 38.2742 120.504 38.2619 119.122C38.2586 117.971 37.8891 117.105 37.1533 116.522C36.4153 115.926 35.4406 115.696 34.229 115.832L30.3957 116.416ZM64.6684 119.5L55.3438 120.97L53.617 126.833L46.0571 128.025L56.9144 96.3899L63.3714 95.3718L73.3691 123.718L66.2302 124.844L64.6684 119.5ZM57.0538 115.131L63.1097 114.176L60.2392 104.312L57.0538 115.131ZM99.4378 119.608L92.6198 120.683L92.803 108.159L82.7967 109.737L82.5934 122.264L75.7353 123.345L76.1852 93.3515L83.0633 92.267L82.8654 104.177L92.8919 102.596L93.0697 90.6893L99.9077 89.6111L99.4378 119.608ZM126.613 115.734C123.625 116.164 121.044 115.564 118.869 113.934C116.705 112.289 115.238 109.807 114.468 106.49L114.308 105.734L111.2 106.224L111.028 117.781L104.17 118.862L104.64 88.865L111.478 87.7868L111.277 100.848L114.004 100.418C114.096 97.7868 114.658 95.3553 115.69 93.1238C116.733 90.8767 118.158 89.0491 119.963 87.641C121.783 86.2307 123.866 85.3678 126.214 85.0524C128.212 84.7785 130.023 84.9657 131.646 85.614C133.28 86.2469 134.675 87.3149 135.83 88.818C136.985 90.3211 137.801 92.1105 138.279 94.1862C138.62 95.6533 138.793 97.3591 138.798 99.3039C138.815 101.233 138.571 103.121 138.068 104.968C137.576 106.799 136.825 108.466 135.815 109.968C134.805 111.47 133.532 112.739 131.996 113.776C130.472 114.797 128.678 115.45 126.613 115.734ZM131.392 95.2105C130.731 91.8895 129.16 90.356 126.679 90.6102C124.766 90.8159 123.314 91.8189 122.324 93.6191C121.332 95.406 120.88 97.8885 120.971 101.067C121.02 103.032 121.161 104.537 121.395 105.583C122.064 108.957 123.649 110.495 126.15 110.197C127.794 110.02 129.106 109.217 130.086 107.788C131.065 106.346 131.627 104.394 131.773 101.932C131.917 99.4571 131.79 97.2165 131.392 95.2105Z" fill="white"/>
<g filter="url(#filter0_d)">
<path fill-rule="evenodd" clip-rule="evenodd" d="M262.609 72.4571C266.302 71.6724 269.991 70.843 273.676 69.9715C275.19 69.6124 276.651 70.5837 276.936 72.1412C276.952 72.236 276.966 72.3279 276.975 72.4203L280.887 118.224C281.016 119.743 279.978 121.151 278.52 121.438C261.894 124.739 245.188 127.519 228.426 129.773C212.379 131.912 196.518 133.477 180.83 134.47C179.365 134.563 178.124 133.462 177.992 131.951L177.343 124.356C170.689 124.956 164.065 125.467 157.469 125.893C156.705 125.944 155.963 125.715 155.393 125.251C154.823 124.786 154.468 124.122 154.4 123.392L150.291 77.5874C150.257 77.1852 150.31 76.7762 150.448 76.3869C150.587 75.9976 150.807 75.6367 151.095 75.3274C151.383 75.0181 151.732 74.7673 152.12 74.5913C152.508 74.4152 152.926 74.3178 153.347 74.3052C170.883 73.6988 188.419 72.2649 205.893 70.0086C223.404 67.7491 240.846 64.674 258.216 60.7723C258.629 60.6785 259.054 60.6682 259.464 60.7419C259.873 60.8156 260.258 60.9717 260.594 61.2003C260.929 61.4288 261.208 61.7248 261.412 62.0692C261.616 62.4136 261.741 62.7988 261.779 63.2002L262.609 72.4571Z" fill="#FFD800"/>
<path fill-rule="evenodd" clip-rule="evenodd" d="M280.187 112.146C284.128 111.78 288.072 111.459 292.019 111.178C293.641 111.064 294.979 109.704 295.005 108.142C295.005 108.048 295.004 107.956 294.998 107.866L291.151 63.2652C291.023 61.7864 289.711 60.7634 288.159 60.9293C270.46 62.7926 252.766 65.1747 235.107 68.0719C218.203 70.8642 201.59 74.1441 185.254 77.9145C183.728 78.2665 182.638 79.6836 182.763 81.1551L183.4 88.5509C176.44 89.9803 176.796 88.6261 169.926 90.2027C169.129 90.3837 168.404 90.8243 167.897 91.4355C167.39 92.0468 167.138 92.783 167.193 93.4955L170.837 138.156C170.87 138.548 170.996 138.92 171.205 139.247C171.415 139.575 171.704 139.851 172.054 140.058C172.404 140.265 172.806 140.397 173.236 140.448C173.666 140.498 174.114 140.465 174.55 140.351C192.724 135.659 203.771 134.611 222.165 131.502C240.598 128.385 259.1 126.061 277.67 124.543C278.112 124.508 278.552 124.39 278.961 124.197C279.37 124.005 279.74 123.741 280.046 123.424C280.353 123.106 280.589 122.742 280.74 122.354C280.891 121.966 280.954 121.563 280.924 121.171L280.187 112.146Z" fill="#FFD800"/>
<path d="M180.129 95.5096C179.06 95.6412 178.091 95.5627 177.221 95.2741C176.36 94.9742 175.659 94.4975 175.118 93.8439C174.587 93.189 174.262 92.4022 174.144 91.4835C173.986 90.2652 174.127 89.1473 174.564 88.1297C175.011 87.111 175.7 86.2755 176.631 85.6232C177.571 84.9598 178.681 84.5493 179.96 84.3919C180.969 84.2677 181.887 84.3424 182.714 84.6159C183.54 84.8795 184.186 85.3224 184.652 85.9447L182.361 88.2505C181.785 87.4895 181.033 87.1662 180.104 87.2805C179.554 87.3482 179.082 87.5433 178.687 87.8658C178.292 88.1883 178.006 88.6089 177.829 89.1278C177.651 89.6366 177.602 90.2006 177.682 90.8197C177.762 91.4388 178.021 91.9142 178.46 92.2457C178.907 92.5659 179.456 92.6861 180.105 92.6062C180.995 92.4967 181.722 91.9963 182.287 91.1051L184.628 92.8408C184.115 93.6648 183.489 94.2845 182.751 94.7C182.023 95.1143 181.149 95.3841 180.129 95.5096ZM195.232 82.7558L194.485 93.4993L190.948 93.9346L191.499 85.9238L189.7 86.1452L189.896 83.4125L195.232 82.7558ZM208.427 89.927L204.425 90.4196L203.611 92.3762L199.878 92.8355L205.212 81.5275L208.689 81.0995L212.53 91.2785L209.007 91.712L208.427 89.927ZM207.604 87.4415L206.748 84.823L205.55 87.6943L207.604 87.4415ZM224.393 79.1669L223.646 89.9103L220.169 90.3383L220.684 82.4079L217.491 82.8009L216.976 90.7313L213.498 91.1593L214.245 80.4158L224.393 79.1669ZM230.835 78.374C232.234 78.2018 233.358 78.3729 234.206 78.8874C235.054 79.4018 235.549 80.2082 235.69 81.3067C235.804 82.1855 235.684 82.9864 235.33 83.7096C234.987 84.4315 234.434 85.0271 233.672 85.4962C232.921 85.964 232.015 86.2631 230.956 86.3935L229.142 86.6167L228.964 89.2558L225.427 89.6912L226.173 78.9477L230.835 78.374ZM230.784 83.6452C231.274 83.585 231.638 83.4184 231.877 83.1455C232.115 82.8627 232.205 82.5016 232.148 82.0622C232.057 81.3532 231.571 81.0528 230.692 81.161L229.508 81.3068L229.33 83.8242L230.784 83.6452ZM240.524 79.8902L240.442 81.1479L244.879 80.6019L244.698 83.211L240.246 83.7589L240.154 85.1702L245.415 84.5226L245.219 87.2553L236.495 88.329L237.242 77.5855L245.771 76.5358L245.575 79.2684L240.524 79.8902ZM257.639 75.0752L256.892 85.8187L253.415 86.2467L253.96 78.3126L251.577 78.6059L251.377 80.7152C251.233 82.2749 251.015 83.4987 250.723 84.3867C250.432 85.2747 250.025 85.9385 249.503 86.3781C248.99 86.8065 248.293 87.0748 247.414 87.183C246.864 87.2507 246.371 87.2454 245.935 87.1672L246.319 84.244C246.443 84.2592 246.57 84.2588 246.7 84.2428C247.02 84.2034 247.28 84.0548 247.48 83.7968C247.69 83.5376 247.862 83.1361 247.995 82.5922C248.137 82.0471 248.255 81.3073 248.348 80.3728L248.78 76.1655L257.639 75.0752ZM268.788 73.7183L268.04 84.4468L264.562 84.8748L264.751 82.3255L263.851 82.4362L262.074 85.181L258.251 85.6514L260.583 82.245C260.046 82.0169 259.616 81.6742 259.293 81.2169C258.971 80.7595 258.767 80.2013 258.682 79.5423C258.566 78.6435 258.699 77.8257 259.081 77.0889C259.463 76.352 260.055 75.7466 260.857 75.2726C261.657 74.7886 262.612 74.4783 263.721 74.3418L268.788 73.7183ZM263.728 77.1104C263.208 77.1743 262.821 77.359 262.566 77.6643C262.32 77.9583 262.228 78.345 262.289 78.8243C262.337 79.1938 262.462 79.4574 262.665 79.615C262.867 79.7626 263.163 79.8124 263.553 79.7645L264.932 79.5947L265.107 76.9407L263.728 77.1104ZM182.333 102.479L181.587 113.222L178.109 113.65L178.624 105.72L175.431 106.113L174.916 114.043L171.438 114.471L172.185 103.728L182.333 102.479ZM189.259 112.521C188.19 112.653 187.225 112.574 186.366 112.284C185.515 111.983 184.824 111.505 184.292 110.85C183.771 110.194 183.452 109.407 183.333 108.488C183.176 107.27 183.316 106.152 183.753 105.134C184.199 104.106 184.888 103.265 185.819 102.613C186.76 101.959 187.865 101.554 189.134 101.398C190.203 101.267 191.164 101.351 192.015 101.652C192.874 101.942 193.565 102.415 194.086 103.071C194.617 103.726 194.942 104.513 195.06 105.432C195.217 106.65 195.073 107.774 194.627 108.802C194.19 109.82 193.5 110.655 192.559 111.309C191.628 111.961 190.528 112.365 189.259 112.521ZM189.19 109.624C189.749 109.555 190.215 109.35 190.588 109.01C190.97 108.669 191.24 108.24 191.397 107.724C191.553 107.207 191.594 106.66 191.52 106.081C191.44 105.461 191.191 104.99 190.774 104.666C190.366 104.341 189.843 104.217 189.203 104.296C188.644 104.365 188.173 104.57 187.79 104.911C187.418 105.251 187.153 105.68 186.997 106.196C186.84 106.712 186.799 107.26 186.874 107.839C186.953 108.458 187.197 108.931 187.604 109.256C188.022 109.58 188.55 109.702 189.19 109.624ZM208.477 101.468L206.345 103.83C207 103.952 207.532 104.216 207.939 104.623C208.347 105.029 208.59 105.537 208.669 106.146C208.764 106.885 208.615 107.583 208.223 108.24C207.841 108.896 207.267 109.443 206.501 109.882C205.735 110.321 204.853 110.602 203.853 110.725C203.084 110.82 202.338 110.821 201.615 110.727C200.902 110.632 200.252 110.433 199.665 110.13L200.952 107.476C201.384 107.676 201.843 107.813 202.33 107.885C202.816 107.957 203.284 107.965 203.734 107.91C204.224 107.849 204.589 107.728 204.829 107.547C205.069 107.355 205.169 107.114 205.132 106.825C205.078 106.405 204.701 106.239 204.002 106.325L202.548 106.504L202.702 104.278L204.328 102.48L200.611 102.938L200.807 100.205L208.631 99.2422L208.477 101.468ZM214.275 109.443C213.456 109.544 212.721 109.472 212.07 109.227C211.418 108.973 210.883 108.562 210.464 107.994C210.055 107.416 209.794 106.697 209.684 105.838C209.516 104.54 209.611 103.342 209.966 102.243C210.321 101.134 210.89 100.232 211.673 99.5374C212.465 98.8312 213.401 98.4117 214.48 98.2789C215.3 98.178 216.035 98.2549 216.688 98.5094C217.338 98.7539 217.868 99.1654 218.278 99.744C218.696 100.311 218.961 101.024 219.072 101.883C219.239 103.181 219.146 104.385 218.791 105.494C218.435 106.592 217.861 107.495 217.069 108.201C216.286 108.896 215.354 109.31 214.275 109.443ZM214.27 106.567C214.65 106.521 214.946 106.261 215.159 105.788C215.372 105.316 215.505 104.767 215.556 104.142C215.616 103.505 215.613 102.928 215.546 102.408C215.429 101.5 215.075 101.082 214.486 101.154C214.106 101.201 213.809 101.461 213.596 101.933C213.383 102.406 213.246 102.96 213.186 103.597C213.135 104.222 213.143 104.794 213.21 105.313C213.327 106.222 213.68 106.64 214.27 106.567ZM225.367 97.1825L228.844 96.7545L228.423 102.345L232.412 96.3155L235.784 95.9004L235.038 106.644L231.56 107.072L231.998 101.494L228.008 107.509L224.62 107.926L225.367 97.1825ZM247.271 94.2433C248.28 94.119 249.195 94.2093 250.016 94.514C250.847 94.8175 251.519 95.3029 252.031 95.9703C252.552 96.6264 252.874 97.4238 252.995 98.3625C253.14 99.4909 252.969 100.567 252.482 101.591C252.005 102.613 251.287 103.467 250.33 104.153C249.373 104.839 248.29 105.256 247.081 105.405C246.151 105.52 245.3 105.452 244.527 105.202C243.753 104.952 243.102 104.546 242.573 103.982C242.043 103.418 241.675 102.733 241.47 101.926L240.661 102.026L240.379 105.986L236.902 106.414L237.648 95.671L241.126 95.243L240.855 99.05L241.53 98.967C241.761 98.1575 242.147 97.415 242.689 96.7396C243.242 96.063 243.911 95.5088 244.698 95.0772C245.494 94.6344 246.351 94.3564 247.271 94.2433ZM247.027 102.505C247.526 102.444 247.973 102.247 248.367 101.914C248.759 101.572 249.048 101.141 249.235 100.621C249.422 100.101 249.479 99.556 249.405 98.9868C249.323 98.3477 249.093 97.8637 248.715 97.5348C248.348 97.2047 247.885 97.0741 247.325 97.143C246.825 97.2045 246.379 97.4064 245.987 97.7489C245.593 98.0814 245.303 98.5077 245.116 99.0277C244.928 99.5378 244.871 100.077 244.944 100.647C245.028 101.296 245.254 101.785 245.621 102.115C245.998 102.444 246.467 102.574 247.027 102.505ZM265.045 92.2992L264.299 103.043L260.761 103.478L261.042 99.5176L257.774 99.9198L257.493 103.88L253.956 104.316L254.702 93.5721L258.24 93.1367L257.969 96.9437L261.237 96.5416L261.507 92.7346L265.045 92.2992ZM276.206 90.9408L275.458 101.669L271.98 102.097L272.169 99.5481L271.27 99.6588L269.492 102.404L265.669 102.874L268.002 99.4675C267.465 99.2394 267.035 98.8967 266.712 98.4394C266.389 97.9821 266.185 97.4239 266.1 96.7648C265.984 95.8661 266.117 95.0483 266.499 94.3114C266.881 93.5746 267.473 92.9691 268.275 92.4951C269.075 92.0111 270.03 91.7008 271.14 91.5643L276.206 90.9408ZM271.146 94.3329C270.627 94.3969 270.239 94.5815 269.984 94.8868C269.738 95.1808 269.646 95.5675 269.708 96.0469C269.755 96.4163 269.881 96.6799 270.084 96.8375C270.285 96.9851 270.581 97.035 270.971 96.987L272.35 96.8173L272.525 94.1632L271.146 94.3329Z" fill="#272626"/>
</g>
<g filter="url(#filter1_d)">
<path d="M51.3673 189.219L50.5399 194.47L54.7671 193.804L54.4503 199.951L49.6192 200.712L48.7402 206.42L42.9145 207.338L43.7936 201.631L40.4189 202.163L39.5399 207.87L33.7142 208.789L34.5933 203.082L30.2951 203.76L30.6119 197.613L35.514 196.84L36.3413 191.588L32.1142 192.255L32.431 186.108L37.262 185.346L38.1411 179.639L43.9667 178.72L43.0877 184.427L46.4623 183.895L47.3414 178.188L53.167 177.27L52.288 182.977L56.5862 182.299L56.2694 188.446L51.3673 189.219ZM45.5416 190.137L42.167 190.669L41.3396 195.921L44.7143 195.389L45.5416 190.137Z" fill="white"/>
</g>
<g filter="url(#filter2_d)">
<path d="M63.5743 182.03L77.504 180.072L77.252 184.273L68.6463 185.483L68.5404 187.393L72.3728 186.855C74.0403 186.62 75.3792 186.822 76.3894 187.46C77.4148 188.096 78.0254 189.11 78.221 190.502C78.3844 191.665 78.2061 192.728 77.6861 193.69C77.164 194.637 76.3396 195.432 75.2129 196.074C74.0841 196.7 72.7088 197.128 71.0872 197.356L62.6192 198.546L63.5743 182.03ZM70.9451 193.514C71.5571 193.428 72.0196 193.223 72.3328 192.898C72.6613 192.571 72.7933 192.178 72.7288 191.719C72.6299 191.015 72.0832 190.733 71.0888 190.873L68.312 191.263L68.1684 193.904L70.9451 193.514ZM91.2843 191.662L85.1571 192.523L83.9442 195.549L78.23 196.352L86.2074 178.849L91.5314 178.101L97.5985 193.63L92.2056 194.388L91.2843 191.662ZM89.9788 187.867L88.6212 183.869L86.8348 188.309L89.9788 187.867ZM115.871 174.68L114.916 191.196L109.5 191.957L109.861 185.869L104.858 186.572L104.497 192.66L99.0812 193.421L100.036 176.906L105.452 176.145L105.105 181.997L110.107 181.294L110.455 175.442L115.871 174.68ZM132.958 172.302L132 188.795L126.676 189.543L126.92 185.624L125.544 185.817L122.866 190.078L117.014 190.901L120.53 185.609C119.702 185.273 119.037 184.758 118.534 184.065C118.031 183.371 117.708 182.519 117.567 181.509C117.373 180.132 117.563 178.873 118.136 177.732C118.708 176.591 119.605 175.645 120.826 174.897C122.045 174.132 123.503 173.631 125.201 173.392L132.958 172.302ZM125.261 177.643C124.465 177.755 123.875 178.049 123.489 178.524C123.116 178.982 122.982 179.578 123.085 180.313C123.165 180.879 123.361 181.28 123.675 181.517C123.987 181.738 124.442 181.807 125.038 181.723L127.15 181.426L127.372 177.347L125.261 177.643ZM151.34 169.696L150.385 186.211L145.061 186.959L145.711 174.769L140.823 175.456L140.173 187.646L134.849 188.394L135.804 171.879L151.34 169.696ZM162.135 184.934C160.498 185.164 159.018 185.068 157.695 184.645C156.385 184.205 155.317 183.49 154.491 182.498C153.681 181.504 153.177 180.304 152.979 178.896C152.716 177.03 152.911 175.309 153.564 173.736C154.23 172.144 155.27 170.836 156.686 169.81C158.118 168.782 159.805 168.131 161.748 167.858C163.385 167.628 164.858 167.733 166.168 168.173C167.491 168.596 168.558 169.304 169.368 170.298C170.194 171.289 170.706 172.489 170.904 173.896C171.166 175.763 170.964 177.492 170.299 179.083C169.646 180.657 168.604 181.958 167.173 182.986C165.757 184.011 164.078 184.661 162.135 184.934ZM161.978 180.486C162.835 180.366 163.545 180.04 164.11 179.508C164.691 178.974 165.096 178.309 165.327 177.512C165.559 176.715 165.612 175.873 165.487 174.985C165.354 174.037 164.964 173.319 164.319 172.833C163.689 172.344 162.884 172.168 161.905 172.306C161.048 172.426 160.329 172.754 159.749 173.288C159.184 173.819 158.786 174.484 158.555 175.281C158.324 176.078 158.271 176.92 158.395 177.807C158.529 178.756 158.91 179.474 159.541 179.963C160.186 180.45 160.999 180.624 161.978 180.486ZM188.212 176.612L190.323 176.316L189.886 183.865L184.929 184.562L185.107 181.331L175.974 182.615L175.796 185.846L170.839 186.542L171.276 178.992L171.551 178.954C172.484 178.823 173.214 178.073 173.739 176.704C174.264 175.335 174.637 173.489 174.856 171.165L175.322 166.325L188.908 164.416L188.212 176.612ZM179.522 171.398C179.363 173.043 179.186 174.386 178.989 175.428C178.792 176.47 178.508 177.336 178.137 178.028L182.888 177.36L183.348 169.48L179.653 169.999L179.522 171.398ZM203.708 170.433L207.924 178.124L202.187 178.931L199.421 173.399L197.654 173.647L197.299 179.618L191.883 180.379L192.839 163.863L198.254 163.102L197.903 169.259L199.28 169.066L203.028 162.431L209.04 161.586L203.708 170.433ZM226.262 159.166L225.306 175.681L219.982 176.43L220.679 164.233L217.03 164.746L216.76 167.99C216.567 170.388 216.255 172.273 215.823 173.644C215.392 175.015 214.78 176.045 213.988 176.734C213.208 177.405 212.145 177.835 210.799 178.025C209.958 178.143 209.202 178.148 208.531 178.039L209.069 173.541C209.259 173.561 209.453 173.557 209.652 173.529C210.142 173.46 210.538 173.225 210.84 172.824C211.158 172.42 211.414 171.799 211.608 170.96C211.818 170.12 211.985 168.981 212.111 167.543L212.699 161.072L226.262 159.166ZM243.826 156.323C245.371 156.106 246.776 156.22 248.04 156.667C249.319 157.111 250.358 157.839 251.155 158.85C251.966 159.844 252.472 161.06 252.674 162.498C252.917 164.227 252.674 165.883 251.945 167.468C251.231 169.05 250.147 170.381 248.691 171.459C247.236 172.537 245.583 173.206 243.731 173.466C242.309 173.666 241.002 173.585 239.812 173.221C238.622 172.858 237.617 172.251 236.795 171.399C235.973 170.547 235.398 169.505 235.068 168.272L233.829 168.446L233.468 174.534L228.144 175.283L229.099 158.767L234.423 158.019L234.075 163.871L235.108 163.726C235.447 162.477 236.027 161.327 236.846 160.276C237.681 159.223 238.698 158.354 239.897 157.671C241.109 156.97 242.419 156.521 243.826 156.323ZM243.597 169.015C244.362 168.908 245.044 168.594 245.641 168.073C246.237 167.537 246.673 166.867 246.95 166.064C247.227 165.26 247.305 164.423 247.182 163.551C247.044 162.571 246.683 161.834 246.099 161.339C245.53 160.842 244.817 160.653 243.96 160.774C243.195 160.881 242.515 161.203 241.92 161.739C241.322 162.26 240.885 162.922 240.607 163.726C240.328 164.514 240.25 165.344 240.372 166.216C240.512 167.21 240.867 167.956 241.436 168.453C242.02 168.949 242.741 169.136 243.597 169.015ZM269.558 153.081L268.603 169.596L263.279 170.345L263.582 165.177C262.684 165.553 261.821 165.799 260.995 165.915C258.914 166.208 257.262 165.995 256.038 165.278C254.827 164.543 254.107 163.365 253.879 161.743C253.811 161.254 253.792 160.679 253.824 160.019L254.091 155.255L259.415 154.507L259.146 159.084C259.129 159.523 259.141 159.881 259.179 160.156C259.259 160.722 259.462 161.115 259.789 161.334C260.13 161.536 260.614 161.593 261.241 161.504C262.281 161.358 263.151 161.057 263.852 160.599L264.234 153.829L269.558 153.081Z" fill="white"/>
</g>
<defs>
<filter id="filter0_d" x="137.183" y="54.1444" width="170.92" height="105.973" filterUnits="userSpaceOnUse" color-interpolation-filters="sRGB">
<feFlood flood-opacity="0" result="BackgroundImageFix"/>
<feColorMatrix in="SourceAlpha" type="matrix" values="0 0 0 0 0 0 0 0 0 0 0 0 0 0 0 0 0 0 127 0"/>
<feOffset dy="6.54891"/>
<feGaussianBlur stdDeviation="6.54891"/>
<feColorMatrix type="matrix" values="0 0 0 0 0 0 0 0 0 0 0 0 0 0 0 0 0 0 0.4 0"/>
<feBlend mode="normal" in2="BackgroundImageFix" result="effect1_dropShadow"/>
<feBlend mode="normal" in="SourceGraphic" in2="effect1_dropShadow" result="shape"/>
</filter>
<filter id="filter1_d" x="28.9709" y="176.607" width="28.9396" height="34.168" filterUnits="userSpaceOnUse" color-interpolation-filters="sRGB">
<feFlood flood-opacity="0" result="BackgroundImageFix"/>
<feColorMatrix in="SourceAlpha" type="matrix" values="0 0 0 0 0 0 0 0 0 0 0 0 0 0 0 0 0 0 127 0"/>
<feOffset dy="0.662113"/>
<feGaussianBlur stdDeviation="0.662113"/>
<feColorMatrix type="matrix" values="0 0 0 0 0 0 0 0 0 0 0 0 0 0 0 0 0 0 0.7 0"/>
<feBlend mode="normal" in2="BackgroundImageFix" result="effect1_dropShadow"/>
<feBlend mode="normal" in="SourceGraphic" in2="effect1_dropShadow" result="shape"/>
</filter>
<filter id="filter2_d" x="61.2949" y="152.419" width="209.587" height="48.113" filterUnits="userSpaceOnUse" color-interpolation-filters="sRGB">
<feFlood flood-opacity="0" result="BackgroundImageFix"/>
<feColorMatrix in="SourceAlpha" type="matrix" values="0 0 0 0 0 0 0 0 0 0 0 0 0 0 0 0 0 0 127 0"/>
<feOffset dy="0.662113"/>
<feGaussianBlur stdDeviation="0.662113"/>
<feColorMatrix type="matrix" values="0 0 0 0 0 0 0 0 0 0 0 0 0 0 0 0 0 0 0.6 0"/>
<feBlend mode="normal" in2="BackgroundImageFix" result="effect1_dropShadow"/>
<feBlend mode="normal" in="SourceGraphic" in2="effect1_dropShadow" result="shape"/>
</filter>
</defs>
</svg>
