<svg width="799" height="400" viewBox="0 0 799 400" fill="none" xmlns="http://www.w3.org/2000/svg">
<mask id="mask0" mask-type="alpha" maskUnits="userSpaceOnUse" x="0" y="-34" width="607" height="434">
<path d="M0.495117 -33.514H606.679V399.779H0.495117V-33.514Z" fill="#C4C4C4"/>
</mask>
<g mask="url(#mask0)">
<path d="M-73.0427 363.25L403.299 288.133L376.361 73.0635L-99.9806 148.181L-73.0427 363.25Z" fill="#FF4000"/>
<path d="M-58.8916 272.174L510.482 182.386L488.776 9.09439L-80.5967 98.8821L-58.8916 272.174Z" fill="#FF4000"/>
</g>
<path d="M131.485 202.264L115.491 204.786L115.83 185.742L76.1299 192.001L75.7825 210.994L59.4261 213.573L58.7088 180.425L63.1248 179.835C69.059 175.08 72.5995 166.918 73.7462 155.35L77.0841 114.614L126.981 106.747L125.998 169.816L133.865 168.575L131.485 202.264ZM83.5947 176.767L108.347 172.599L109.11 123.94L93.6852 126.372L91.6719 151.622C90.6217 162.008 87.9293 170.389 83.5947 176.767ZM182.918 160.735L158.849 164.53L154.392 179.662L134.878 182.738L162.903 101.083L179.57 98.4549L205.376 171.623L186.949 174.528L182.918 160.735ZM163.263 149.458L178.895 146.994L171.485 121.532L163.263 149.458ZM229.606 141.597L229.186 167.869L211.484 170.66L212.645 93.24L239.724 89.0235C248.109 87.7014 255.067 88.9915 260.598 92.8937C266.164 96.7905 269.238 102.495 269.821 110.006C270.207 115.144 269.279 119.799 267.037 123.972C264.795 128.145 261.5 131.582 257.151 134.284C252.838 136.98 247.799 138.782 242.037 139.691L229.606 141.597ZM229.827 127.187L240.506 125.609C244.976 124.798 248.181 122.808 250.121 119.637C252.056 116.432 252.458 112.815 251.327 108.784C250.719 106.723 249.647 105.194 248.111 104.199C246.604 103.163 244.753 102.748 242.557 102.953L230.178 104.851L229.827 127.187ZM322.585 75.9059L340.753 73.0414L339.592 150.461L321.838 153.261L322.635 105.498L296.164 157.309L277.945 160.181L279.158 82.753L296.912 79.9538L296.122 127.768L322.585 75.9059ZM374.863 67.6633L390.3 118.807L407.317 62.5463L430.92 58.8249L429.759 136.245L411.953 139.052L412.249 120.068L414.539 84.8015L396.425 141.501L384.675 143.353L367.541 90.1958L368.737 128.732L368.422 145.916L350.72 148.707L351.881 71.2868L374.863 67.6633Z" fill="white"/>
<path d="M113.717 234.135L82.039 239.129L81.8456 251.361L90.032 250.123C95.2988 249.434 100.126 249.769 104.513 251.129C108.935 252.482 112.464 254.791 115.101 258.053C117.771 261.31 119.284 265.297 119.639 270.016C120.3 277.798 117.924 284.485 112.511 290.077C107.132 295.664 99.9053 299.173 90.8299 300.604L63.2415 304.954L64.4027 227.534L113.938 219.724L113.717 234.135ZM81.6164 265.719L81.2764 287.788L89.411 286.558C93.1033 285.976 96.112 284.423 98.4371 281.899C100.791 279.335 101.953 276.27 101.921 272.703C101.912 269.734 100.958 267.497 99.059 265.993C97.1543 264.454 94.6382 263.861 91.5108 264.212L81.6164 265.719ZM170.081 273.68L146.013 277.475L141.555 292.606L122.042 295.683L150.067 214.027L166.733 211.4L192.54 284.568L174.113 287.473L170.081 273.68ZM150.426 262.403L166.058 259.938L158.649 234.477L150.426 262.403ZM259.828 273.958L242.23 276.733L242.703 244.406L216.874 248.478L216.349 280.814L198.647 283.605L199.809 206.185L217.562 203.385L217.052 234.127L242.932 230.047L243.391 199.313L261.041 196.53L259.828 273.958ZM329.972 263.96C322.261 265.07 315.598 263.521 309.983 259.314C304.398 255.066 300.612 248.661 298.625 240.098L298.211 238.147L290.189 239.412L289.746 269.241L272.044 272.032L273.257 194.604L290.907 191.821L290.388 225.535L297.427 224.425C297.665 217.633 299.115 211.357 301.779 205.597C304.472 199.797 308.149 195.08 312.81 191.445C317.505 187.804 322.883 185.577 328.943 184.763C334.101 184.056 338.775 184.539 342.964 186.213C347.183 187.846 350.783 190.603 353.764 194.483C356.745 198.363 358.852 202.982 360.086 208.339C360.966 212.126 361.413 216.529 361.426 221.549C361.469 226.529 360.84 231.402 359.541 236.169C358.27 240.896 356.331 245.198 353.724 249.075C351.118 252.952 347.832 256.228 343.869 258.904C339.935 261.54 335.302 263.226 329.972 263.96ZM342.308 210.983C340.603 202.411 336.548 198.453 330.144 199.109C325.206 199.64 321.459 202.229 318.903 206.876C316.341 211.488 315.176 217.896 315.409 226.099C315.537 231.172 315.902 235.057 316.504 237.756C318.231 246.466 322.323 250.436 328.779 249.666C333.022 249.209 336.408 247.137 338.939 243.449C341.464 239.727 342.915 234.688 343.293 228.334C343.665 221.945 343.336 216.161 342.308 210.983Z" fill="white"/>
<g filter="url(#filter0_d)">
<path fill-rule="evenodd" clip-rule="evenodd" d="M681.111 152.911C690.645 150.885 700.166 148.744 709.677 146.495C713.586 145.568 717.356 148.075 718.094 152.095C718.132 152.34 718.171 152.577 718.194 152.816L728.291 271.044C728.623 274.965 725.944 278.599 722.18 279.34C679.267 287.862 636.143 295.038 592.879 300.856C551.458 306.376 510.516 310.416 470.024 312.979C466.242 313.219 463.037 310.376 462.698 306.477L461.022 286.873C443.847 288.422 426.748 289.74 409.724 290.84C407.751 290.973 405.835 290.38 404.364 289.182C402.893 287.984 401.977 286.269 401.801 284.385L391.196 166.153C391.106 165.115 391.244 164.059 391.601 163.054C391.959 162.05 392.527 161.118 393.27 160.32C394.014 159.521 394.915 158.874 395.916 158.419C396.917 157.965 397.996 157.713 399.083 157.681C444.347 156.116 489.612 152.415 534.715 146.591C579.915 140.758 624.937 132.821 669.772 122.75C670.839 122.508 671.936 122.481 672.993 122.671C674.05 122.862 675.043 123.265 675.909 123.855C676.775 124.444 677.494 125.208 678.021 126.097C678.548 126.986 678.871 127.981 678.969 129.017L681.111 152.911Z" fill="#FFD800"/>
<path fill-rule="evenodd" clip-rule="evenodd" d="M726.484 255.356C736.656 254.412 746.836 253.582 757.024 252.858C761.211 252.563 764.665 249.054 764.733 245.021C764.731 244.777 764.73 244.541 764.713 244.308L754.785 129.185C754.453 125.367 751.067 122.727 747.061 123.155C701.375 127.965 655.705 134.113 610.123 141.592C566.491 148.799 523.608 157.265 481.442 166.997C477.504 167.906 474.689 171.564 475.011 175.362L476.656 194.452C458.691 198.142 459.609 194.646 441.878 198.716C439.821 199.183 437.949 200.32 436.639 201.898C435.33 203.476 434.681 205.376 434.823 207.215L444.228 322.495C444.314 323.506 444.638 324.465 445.179 325.311C445.72 326.156 446.466 326.869 447.369 327.402C448.272 327.936 449.312 328.279 450.422 328.409C451.532 328.539 452.687 328.454 453.812 328.158C500.723 316.047 529.239 313.343 576.718 305.318C624.297 297.271 672.055 291.274 719.987 287.357C721.128 287.265 722.264 286.961 723.32 286.463C724.376 285.966 725.33 285.285 726.121 284.466C726.912 283.646 727.522 282.706 727.912 281.705C728.302 280.704 728.464 279.664 728.387 278.652L726.484 255.356Z" fill="#FFD800"/>
<path d="M468.452 214.262C465.692 214.601 463.19 214.399 460.945 213.654C458.723 212.88 456.913 211.649 455.517 209.962C454.146 208.272 453.307 206.241 453.001 203.869C452.596 200.725 452.958 197.839 454.086 195.213C455.241 192.583 457.02 190.426 459.423 188.743C461.849 187.03 464.712 185.971 468.014 185.565C470.619 185.244 472.99 185.437 475.124 186.143C477.256 186.823 478.923 187.966 480.126 189.573L474.212 195.525C472.727 193.56 470.785 192.726 468.386 193.021C466.967 193.195 465.748 193.699 464.729 194.531C463.709 195.364 462.972 196.45 462.515 197.789C462.056 199.102 461.929 200.558 462.135 202.156C462.341 203.754 463.011 204.981 464.143 205.837C465.298 206.663 466.713 206.974 468.39 206.767C470.686 206.485 472.563 205.193 474.022 202.893L480.063 207.373C478.739 209.5 477.124 211.1 475.219 212.172C473.339 213.241 471.083 213.938 468.452 214.262ZM507.435 181.341L505.508 209.073L496.377 210.196L497.798 189.519L493.155 190.09L493.661 183.037L507.435 181.341ZM541.494 199.852L531.163 201.123L529.063 206.174L519.429 207.359L533.195 178.171L542.172 177.066L552.084 203.34L542.992 204.459L541.494 199.852ZM539.369 193.436L537.161 186.677L534.068 194.089L539.369 193.436ZM582.705 172.078L580.779 199.809L571.802 200.914L573.132 180.444L564.891 181.458L563.561 201.928L554.584 203.033L556.511 175.301L582.705 172.078ZM599.334 170.031C602.946 169.587 605.846 170.028 608.035 171.356C610.224 172.684 611.501 174.766 611.867 177.601C612.159 179.869 611.849 181.937 610.937 183.803C610.05 185.667 608.624 187.204 606.658 188.415C604.717 189.623 602.38 190.395 599.645 190.731L594.964 191.307L594.506 198.119L585.375 199.243L587.301 171.512L599.334 170.031ZM599.202 183.637C600.466 183.482 601.407 183.052 602.023 182.347C602.637 181.617 602.87 180.685 602.724 179.551C602.488 177.721 601.235 176.946 598.965 177.225L595.908 177.601L595.449 184.099L599.202 183.637ZM624.342 173.945L624.132 177.191L635.585 175.782L635.117 182.516L623.625 183.931L623.388 187.573L636.969 185.902L636.463 192.956L613.944 195.727L615.871 167.996L637.887 165.286L637.381 172.34L624.342 173.945ZM668.521 161.516L666.594 189.247L657.617 190.352L659.025 169.873L652.873 170.63L652.356 176.074C651.985 180.1 651.422 183.259 650.67 185.551C649.917 187.843 648.867 189.557 647.52 190.691C646.195 191.797 644.398 192.49 642.128 192.769C640.709 192.944 639.437 192.93 638.31 192.728L639.302 185.183C639.622 185.222 639.949 185.221 640.285 185.18C641.11 185.078 641.781 184.694 642.298 184.029C642.841 183.36 643.283 182.323 643.626 180.919C643.995 179.512 644.299 177.603 644.539 175.19L645.654 164.33L668.521 161.516ZM697.298 158.014L695.367 185.706L686.39 186.811L686.878 180.231L684.556 180.517L679.967 187.601L670.101 188.816L676.121 180.023C674.734 179.434 673.625 178.55 672.791 177.369C671.958 176.189 671.431 174.748 671.212 173.047C670.913 170.727 671.256 168.616 672.243 166.714C673.229 164.812 674.757 163.249 676.826 162.026C678.893 160.776 681.357 159.976 684.22 159.623L697.298 158.014ZM684.238 166.769C682.897 166.935 681.897 167.411 681.239 168.199C680.603 168.958 680.365 169.956 680.524 171.194C680.647 172.147 680.971 172.828 681.495 173.234C682.016 173.615 682.779 173.744 683.785 173.62L687.345 173.182L687.798 166.331L684.238 166.769ZM474.337 233.776L472.41 261.507L463.434 262.612L464.764 242.142L456.523 243.156L455.192 263.626L446.216 264.731L448.143 237L474.337 233.776ZM492.214 259.698C489.454 260.038 486.965 259.834 484.746 259.086C482.549 258.309 480.766 257.075 479.395 255.385C478.049 253.691 477.224 251.659 476.918 249.287C476.513 246.143 476.874 243.257 478.003 240.631C479.154 237.975 480.931 235.806 483.335 234.122C485.764 232.435 488.616 231.39 491.892 230.987C494.652 230.648 497.131 230.866 499.327 231.643C501.546 232.391 503.328 233.612 504.673 235.306C506.044 236.996 506.883 239.027 507.188 241.398C507.594 244.543 507.221 247.443 506.07 250.099C504.941 252.725 503.162 254.882 500.733 256.568C498.33 258.252 495.49 259.295 492.214 259.698ZM492.036 252.218C493.48 252.041 494.683 251.513 495.644 250.635C496.631 249.755 497.327 248.648 497.732 247.315C498.136 245.982 498.242 244.568 498.05 243.073C497.843 241.475 497.202 240.258 496.124 239.422C495.073 238.582 493.722 238.264 492.071 238.467C490.626 238.645 489.41 239.174 488.423 240.055C487.462 240.933 486.779 242.038 486.375 243.371C485.97 244.704 485.864 246.118 486.057 247.613C486.263 249.211 486.892 250.429 487.944 251.269C489.021 252.105 490.385 252.422 492.036 252.218ZM541.819 231.166L536.316 237.264C538.008 237.579 539.38 238.261 540.432 239.31C541.485 240.359 542.112 241.669 542.315 243.242C542.561 245.149 542.177 246.951 541.165 248.647C540.177 250.339 538.696 251.752 536.719 252.886C534.743 254.019 532.465 254.745 529.886 255.062C527.899 255.307 525.974 255.308 524.108 255.066C522.269 254.821 520.591 254.308 519.075 253.525L522.397 246.675C523.512 247.192 524.697 247.544 525.953 247.73C527.208 247.916 528.417 247.937 529.577 247.795C530.841 247.639 531.784 247.327 532.404 246.857C533.022 246.362 533.282 245.741 533.186 244.994C533.046 243.911 532.074 243.481 530.268 243.703L526.515 244.165L526.914 238.421L531.111 233.78L521.516 234.961L522.021 227.908L542.218 225.422L541.819 231.166ZM556.786 251.751C554.671 252.012 552.774 251.826 551.094 251.195C549.411 250.538 548.029 249.478 546.95 248.013C545.892 246.52 545.221 244.665 544.935 242.448C544.503 239.097 544.746 236.004 545.664 233.167C546.579 230.305 548.048 227.978 550.07 226.184C552.114 224.361 554.53 223.278 557.316 222.935C559.431 222.675 561.33 222.873 563.013 223.53C564.693 224.161 566.061 225.224 567.119 226.717C568.198 228.181 568.881 230.022 569.167 232.239C569.599 235.59 569.358 238.696 568.443 241.558C567.525 244.394 566.043 246.724 563.998 248.546C561.976 250.34 559.572 251.409 556.786 251.751ZM556.773 244.33C557.753 244.209 558.518 243.539 559.068 242.319C559.619 241.099 559.96 239.682 560.092 238.069C560.248 236.426 560.239 234.935 560.066 233.595C559.763 231.249 558.851 230.17 557.329 230.357C556.349 230.478 555.584 231.148 555.034 232.368C554.483 233.588 554.131 235.019 553.976 236.661C553.843 238.275 553.863 239.752 554.036 241.092C554.339 243.438 555.251 244.517 556.773 244.33ZM585.415 220.105L594.392 219.001L593.305 233.431L603.601 217.867L612.306 216.796L610.379 244.527L601.403 245.632L602.534 231.235L592.233 246.76L583.489 247.837L585.415 220.105ZM641.955 212.519C644.56 212.198 646.922 212.431 649.041 213.217C651.186 214.001 652.92 215.254 654.243 216.976C655.588 218.67 656.417 220.728 656.729 223.151C657.105 226.064 656.664 228.841 655.406 231.484C654.174 234.123 652.323 236.328 649.852 238.098C647.381 239.868 644.586 240.946 641.464 241.33C639.065 241.625 636.868 241.45 634.872 240.806C632.876 240.161 631.195 239.111 629.828 237.656C628.461 236.201 627.512 234.432 626.982 232.35L624.892 232.607L624.167 242.83L615.19 243.935L617.117 216.204L626.094 215.099L625.395 224.926L627.137 224.711C627.732 222.622 628.729 220.706 630.129 218.962C631.555 217.216 633.283 215.785 635.315 214.671C637.368 213.528 639.582 212.811 641.955 212.519ZM641.325 233.845C642.614 233.686 643.767 233.178 644.783 232.32C645.796 231.436 646.544 230.322 647.026 228.98C647.508 227.638 647.654 226.232 647.464 224.763C647.252 223.113 646.658 221.864 645.684 221.015C644.736 220.163 643.539 219.826 642.095 220.003C640.805 220.162 639.654 220.683 638.641 221.567C637.625 222.426 636.876 223.526 636.394 224.868C635.908 226.185 635.76 227.578 635.95 229.047C636.166 230.722 636.748 231.986 637.697 232.838C638.671 233.687 639.88 234.023 641.325 233.845ZM687.834 207.501L685.907 235.232L676.776 236.356L677.501 226.133L669.067 227.171L668.341 237.394L659.21 238.517L661.137 210.786L670.268 209.662L669.57 219.489L678.004 218.451L678.703 208.624L687.834 207.501ZM716.643 203.994L714.711 231.687L705.735 232.791L706.223 226.211L703.901 226.497L699.312 233.582L689.446 234.796L695.465 226.004C694.079 225.415 692.969 224.53 692.136 223.35C691.302 222.169 690.776 220.728 690.557 219.027C690.257 216.707 690.601 214.596 691.587 212.695C692.574 210.793 694.102 209.23 696.171 208.006C698.237 206.757 700.702 205.956 703.565 205.604L716.643 203.994ZM703.583 212.75C702.241 212.915 701.242 213.392 700.583 214.18C699.948 214.939 699.709 215.937 699.869 217.174C699.992 218.128 700.316 218.808 700.84 219.215C701.36 219.596 702.124 219.725 703.13 219.601L706.689 219.163L707.142 212.312L703.583 212.75Z" fill="#272626"/>
</g>
<g filter="url(#filter1_d)">
<path d="M138.925 358.734L137.984 364.707L142.792 363.949L142.432 370.94L136.937 371.807L135.937 378.298L129.312 379.342L130.311 372.852L126.473 373.457L125.474 379.948L118.848 380.992L119.848 374.502L114.959 375.273L115.319 368.282L120.895 367.402L121.836 361.429L117.028 362.187L117.388 355.197L122.883 354.33L123.883 347.839L130.508 346.794L129.509 353.285L133.347 352.68L134.346 346.189L140.972 345.144L139.972 351.635L144.861 350.864L144.501 357.855L138.925 358.734ZM132.3 359.779L128.461 360.384L127.52 366.358L131.359 365.752L132.3 359.779Z" fill="white"/>
</g>
<g filter="url(#filter2_d)">
<path d="M152.806 350.538L168.648 348.311L168.362 353.089L158.574 354.465L158.454 356.637L162.812 356.025C164.709 355.758 166.232 355.988 167.381 356.713C168.547 357.437 169.241 358.59 169.464 360.173C169.65 361.496 169.447 362.704 168.855 363.799C168.262 364.876 167.324 365.78 166.043 366.51C164.759 367.222 163.195 367.708 161.35 367.968L151.719 369.321L152.806 350.538ZM161.189 363.599C161.885 363.501 162.411 363.267 162.767 362.898C163.141 362.526 163.291 362.079 163.217 361.557C163.105 360.757 162.483 360.436 161.352 360.595L158.194 361.039L158.031 364.043L161.189 363.599ZM184.321 361.492L177.352 362.472L175.973 365.913L169.474 366.826L178.547 346.92L184.602 346.069L191.502 363.73L185.369 364.592L184.321 361.492ZM182.836 357.176L181.292 352.629L179.261 357.679L182.836 357.176ZM212.284 342.179L211.198 360.962L205.038 361.828L205.449 354.903L199.759 355.703L199.348 362.627L193.189 363.493L194.275 344.71L200.435 343.844L200.039 350.5L205.729 349.7L206.124 343.044L212.284 342.179ZM231.718 339.474L230.628 358.231L224.573 359.082L224.851 354.625L223.285 354.845L220.24 359.691L213.585 360.627L217.583 354.609C216.642 354.226 215.885 353.64 215.313 352.851C214.741 352.062 214.374 351.094 214.213 349.945C213.993 348.379 214.208 346.947 214.86 345.649C215.511 344.351 216.531 343.276 217.92 342.424C219.306 341.555 220.965 340.985 222.896 340.714L231.718 339.474ZM222.963 345.548C222.059 345.675 221.387 346.009 220.948 346.55C220.525 347.071 220.372 347.749 220.489 348.584C220.579 349.228 220.803 349.684 221.161 349.954C221.515 350.205 222.032 350.284 222.711 350.188L225.112 349.851L225.365 345.211L222.963 345.548ZM252.624 336.509L251.538 355.293L245.482 356.144L246.222 342.279L240.663 343.061L239.923 356.925L233.868 357.776L234.954 338.992L252.624 336.509ZM264.902 353.84C263.04 354.102 261.356 353.993 259.852 353.512C258.362 353.012 257.147 352.198 256.208 351.07C255.286 349.94 254.713 348.574 254.488 346.973C254.19 344.85 254.412 342.894 255.154 341.104C255.911 339.294 257.094 337.806 258.705 336.639C260.333 335.47 262.251 334.73 264.461 334.42C266.323 334.158 267.999 334.277 269.489 334.778C270.993 335.258 272.207 336.064 273.128 337.194C274.068 338.322 274.65 339.686 274.875 341.287C275.173 343.41 274.944 345.376 274.187 347.186C273.445 348.976 272.26 350.455 270.632 351.624C269.021 352.791 267.111 353.53 264.902 353.84ZM264.723 348.782C265.697 348.645 266.506 348.274 267.148 347.669C267.808 347.062 268.27 346.305 268.533 345.399C268.796 344.492 268.856 343.534 268.714 342.525C268.563 341.446 268.12 340.63 267.385 340.077C266.669 339.521 265.753 339.322 264.64 339.478C263.665 339.615 262.848 339.987 262.188 340.595C261.546 341.199 261.093 341.955 260.83 342.861C260.567 343.768 260.507 344.726 260.648 345.735C260.8 346.814 261.234 347.631 261.951 348.187C262.685 348.74 263.609 348.938 264.723 348.782ZM294.559 344.376L296.961 344.038L296.464 352.625L290.826 353.417L291.029 349.743L280.641 351.202L280.439 354.877L274.801 355.669L275.298 347.083L275.611 347.039C276.672 346.89 277.502 346.037 278.099 344.48C278.697 342.923 279.12 340.823 279.37 338.18L279.9 332.676L295.351 330.504L294.559 344.376ZM284.677 338.445C284.496 340.316 284.294 341.844 284.07 343.029C283.846 344.213 283.523 345.199 283.102 345.986L288.504 345.227L289.028 336.264L284.826 336.854L284.677 338.445ZM312.183 337.348L316.979 346.095L310.454 347.012L307.308 340.721L305.298 341.003L304.895 347.794L298.735 348.659L299.822 329.876L305.981 329.01L305.582 336.013L307.148 335.793L311.41 328.247L318.248 327.286L312.183 337.348ZM337.835 324.534L336.748 343.317L330.693 344.168L331.485 330.297L327.335 330.88L327.029 334.569C326.809 337.297 326.454 339.441 325.963 341C325.472 342.56 324.776 343.731 323.875 344.514C322.989 345.277 321.78 345.767 320.249 345.982C319.292 346.116 318.432 346.122 317.669 345.998L318.281 340.882C318.497 340.905 318.718 340.901 318.945 340.869C319.501 340.79 319.952 340.523 320.296 340.067C320.657 339.608 320.948 338.902 321.169 337.948C321.407 336.992 321.598 335.696 321.741 334.061L322.41 326.701L337.835 324.534ZM357.811 321.3C359.569 321.053 361.166 321.184 362.604 321.691C364.059 322.196 365.24 323.024 366.147 324.174C367.069 325.304 367.644 326.687 367.874 328.323C368.151 330.289 367.874 332.173 367.045 333.976C366.233 335.775 365 337.288 363.345 338.515C361.69 339.741 359.809 340.502 357.704 340.798C356.086 341.025 354.6 340.932 353.246 340.519C351.893 340.106 350.749 339.415 349.815 338.447C348.88 337.478 348.225 336.292 347.851 334.89L346.441 335.088L346.031 342.013L339.975 342.864L341.062 324.08L347.117 323.229L346.722 329.885L347.896 329.72C348.282 328.3 348.941 326.992 349.873 325.796C350.823 324.598 351.979 323.61 353.343 322.833C354.721 322.036 356.211 321.525 357.811 321.3ZM357.551 335.736C358.421 335.613 359.196 335.256 359.876 334.664C360.553 334.054 361.049 333.292 361.365 332.379C361.68 331.465 361.768 330.512 361.628 329.52C361.472 328.407 361.061 327.568 360.396 327.005C359.749 326.44 358.938 326.225 357.964 326.362C357.094 326.485 356.32 326.851 355.643 327.46C354.963 328.053 354.466 328.806 354.151 329.719C353.833 330.616 353.744 331.56 353.883 332.552C354.042 333.683 354.445 334.531 355.093 335.096C355.757 335.66 356.577 335.873 357.551 335.736ZM387.077 317.613L385.991 336.396L379.936 337.247L380.281 331.37C379.258 331.798 378.278 332.078 377.338 332.21C374.972 332.542 373.092 332.301 371.7 331.485C370.323 330.649 369.505 329.309 369.245 327.465C369.167 326.908 369.146 326.255 369.183 325.504L369.486 320.085L375.541 319.234L375.235 324.441C375.216 324.94 375.229 325.346 375.273 325.66C375.363 326.303 375.595 326.75 375.967 326.999C376.354 327.229 376.904 327.293 377.618 327.193C378.801 327.027 379.791 326.684 380.587 326.164L381.022 318.464L387.077 317.613Z" fill="white"/>
</g>
<defs>
<filter id="filter0_d" x="357.361" y="105.642" width="441.18" height="273.539" filterUnits="userSpaceOnUse" color-interpolation-filters="sRGB">
<feFlood flood-opacity="0" result="BackgroundImageFix"/>
<feColorMatrix in="SourceAlpha" type="matrix" values="0 0 0 0 0 0 0 0 0 0 0 0 0 0 0 0 0 0 127 0"/>
<feOffset dy="16.9041"/>
<feGaussianBlur stdDeviation="16.9041"/>
<feColorMatrix type="matrix" values="0 0 0 0 0 0 0 0 0 0 0 0 0 0 0 0 0 0 0.4 0"/>
<feBlend mode="normal" in2="BackgroundImageFix" result="effect1_dropShadow"/>
<feBlend mode="normal" in="SourceGraphic" in2="effect1_dropShadow" result="shape"/>
</filter>
<filter id="filter1_d" x="113.453" y="344.391" width="32.9139" height="38.8603" filterUnits="userSpaceOnUse" color-interpolation-filters="sRGB">
<feFlood flood-opacity="0" result="BackgroundImageFix"/>
<feColorMatrix in="SourceAlpha" type="matrix" values="0 0 0 0 0 0 0 0 0 0 0 0 0 0 0 0 0 0 127 0"/>
<feOffset dy="0.753041"/>
<feGaussianBlur stdDeviation="0.753041"/>
<feColorMatrix type="matrix" values="0 0 0 0 0 0 0 0 0 0 0 0 0 0 0 0 0 0 0.7 0"/>
<feBlend mode="normal" in2="BackgroundImageFix" result="effect1_dropShadow"/>
<feBlend mode="normal" in="SourceGraphic" in2="effect1_dropShadow" result="shape"/>
</filter>
<filter id="filter2_d" x="150.213" y="316.86" width="238.37" height="54.7204" filterUnits="userSpaceOnUse" color-interpolation-filters="sRGB">
<feFlood flood-opacity="0" result="BackgroundImageFix"/>
<feColorMatrix in="SourceAlpha" type="matrix" values="0 0 0 0 0 0 0 0 0 0 0 0 0 0 0 0 0 0 127 0"/>
<feOffset dy="0.753041"/>
<feGaussianBlur stdDeviation="0.753041"/>
<feColorMatrix type="matrix" values="0 0 0 0 0 0 0 0 0 0 0 0 0 0 0 0 0 0 0.6 0"/>
<feBlend mode="normal" in2="BackgroundImageFix" result="effect1_dropShadow"/>
<feBlend mode="normal" in="SourceGraphic" in2="effect1_dropShadow" result="shape"/>
</filter>
</defs>
</svg>
